<?xml version="1.0" encoding="UTF-8" standalone="no"?>
<svg
   width="95.530533"
   height="127.90002"
   viewBox="0 0 95.530533 127.90002"
   fill="none"
   version="1.1"
   id="svg3"
   sodipodi:docname="map_siblings.svg"
   inkscape:version="1.4.2 (ebf0e940d0, 2025-05-08)"
   xmlns:inkscape="http://www.inkscape.org/namespaces/inkscape"
   xmlns:sodipodi="http://sodipodi.sourceforge.net/DTD/sodipodi-0.dtd"
   xmlns="http://www.w3.org/2000/svg"
   xmlns:svg="http://www.w3.org/2000/svg">
  <sodipodi:namedview
     id="namedview3"
     pagecolor="#ffffff"
     bordercolor="#000000"
     borderopacity="0.25"
     inkscape:showpageshadow="2"
     inkscape:pageopacity="0.0"
     inkscape:pagecheckerboard="0"
     inkscape:deskcolor="#d1d1d1"
     inkscape:zoom="8.9922481"
     inkscape:cx="47.930172"
     inkscape:cy="63.943966"
     inkscape:window-width="5120"
     inkscape:window-height="1371"
     inkscape:window-x="0"
     inkscape:window-y="0"
     inkscape:window-maximized="1"
     inkscape:current-layer="svg3" />
  <g
     clip-path="url(#clip0_1_22)"
     id="g3"
     transform="translate(-16.136893,-0.599976)">
    <path
       d="M 64,128.5 C 57.7,126.6 54.9,121.1 51.3,116.4 39.1,100.2 27.5,83.6 19.6,64.7 8.70001,38.7 24.5,9.19998 53.4,1.69998 c 0.9,-0.2 2,0 2.6,-1.100004 5.3,0 10.7,0 16,0 C 77.6,3.69998 84.1,4.59998 89.6,8.09998 107.5,19.5 118.4,43.5 107,67.7 c -9.7,20.7 -22.9,39.1 -36.8,57.1 -1.4,1.8 -3.5,2.4 -5.2,3.6 -0.3,0.1 -0.6,0.1 -1,0.1 z M 64.9,12.6 C 53.8,12.8 44.2,16.7 36.8,25.2 26,37.7 26,51.2 33,65.5 c 7.6,15.6 17.4,29.8 27.6,43.7 3.1,4.2 3.9,4.2 7.1,-0.3 C 78.3,94.5 87.9,79.5 96.1,63.5 107.9,40.5 89.6,12.4 64.9,12.6 Z"
       fill="#b6d7a8"
       id="path1" />
    <path
       d="M 64.1,79.5 C 48.7,79.6 35.1,66.1 35.1,50.6 35,35.2 48.5,21.6 64,21.6 79.4,21.5 93,35 93,50.5 c 0,15.4 -13.5,29 -28.9,29 z m 7.5,-31.3 c -5.1,0 -10.1,0 -15.3,0 0.4,-1.8 2.5,-2.8 1.2,-4.7 -0.7,-0.9 -1.5,-0.9 -2.6,-0.5 -6.5,2.6 -7.7,7.9 -2.7,12.7 1.3,1.3 2.5,3.8 4.9,2.2 2.5,-1.7 -1.1,-3.4 -0.6,-5.1 5.1,0 10.1,0 15.7,0 -1.1,1.9 -3.6,4.1 -0.8,5.1 3,1.1 4.3,-2.4 6.2,-4 1.5,-1.3 3.4,-2.7 1.6,-5 -1.7,-2.1 -3.6,-3.9 -5.5,-5.8 -0.8,-0.7 -1.8,-0.9 -2.7,-0.2 -0.9,0.7 -1,1.6 -0.5,2.6 0.4,1.1 1.6,1.6 1.1,2.7 z"
       fill="#b6d7a8"
       id="path2" />
    <path
       d="m 71.6,48.2 c 0.5,-1.1 -0.6,-1.7 -1,-2.5 -0.5,-1.1 -0.4,-2 0.5,-2.6 0.9,-0.7 2,-0.5 2.7,0.2 1.9,1.9 3.8,3.7 5.5,5.8 1.8,2.3 -0.2,3.7 -1.6,5 -1.9,1.6 -3.3,5.1 -6.2,4 -2.8,-1.1 -0.4,-3.2 0.8,-5.1 -5.5,0 -10.5,0 -15.7,0 -0.5,1.7 3.1,3.4 0.6,5.1 -2.4,1.6 -3.5,-1 -4.9,-2.2 -4.9,-4.8 -3.7,-10.1 2.7,-12.7 1.1,-0.4 2,-0.4 2.6,0.5 1.3,1.8 -0.9,2.9 -1.2,4.7 5,-0.2 10.1,-0.2 15.2,-0.2 z"
       fill="#0f120e"
       id="path3" />
  </g>
  <defs
     id="defs3">
    <clipPath
       id="clip0_1_22">
      <rect
         width="128"
         height="128.10001"
         fill="#ffffff"
         transform="translate(0,0.5)"
         id="rect3"
         x="0"
         y="0" />
    </clipPath>
  </defs>
</svg>
