<?xml version="1.0" encoding="UTF-8" standalone="no"?>
<svg
   width="95.370819"
   height="127.89999"
   viewBox="0 0 95.370819 127.89999"
   fill="none"
   version="1.1"
   id="svg2"
   sodipodi:docname="map_stop_area.svg"
   inkscape:version="1.4.2 (ebf0e940d0, 2025-05-08)"
   xmlns:inkscape="http://www.inkscape.org/namespaces/inkscape"
   xmlns:sodipodi="http://sodipodi.sourceforge.net/DTD/sodipodi-0.dtd"
   xmlns="http://www.w3.org/2000/svg"
   xmlns:svg="http://www.w3.org/2000/svg">
  <sodipodi:namedview
     id="namedview2"
     pagecolor="#ffffff"
     bordercolor="#000000"
     borderopacity="0.25"
     inkscape:showpageshadow="2"
     inkscape:pageopacity="0.0"
     inkscape:pagecheckerboard="0"
     inkscape:deskcolor="#d1d1d1"
     inkscape:zoom="8.9922481"
     inkscape:cx="47.818966"
     inkscape:cy="63.943966"
     inkscape:window-width="5120"
     inkscape:window-height="1371"
     inkscape:window-x="0"
     inkscape:window-y="0"
     inkscape:window-maximized="1"
     inkscape:current-layer="svg2" />
  <g
     clip-path="url(#clip0_1_40)"
     id="g2"
     transform="translate(-16.234513,-0.600006)">
    <path
       d="m 64,128.5 c -7.1,-2 -9.9,-8.4 -13.8,-13.6 C 38.8,99.8 28.6,84.1 20.5,66.9 7.99997,40.4 24.1,8.20001 54.1,1.70001 c 0.8,-0.2 1.7,0 1.9,-1.100004 5.3,0 10.7,0 16,0 C 77.7,3.40001 84,4.30001 89.5,7.90001 110.5,21.8 117.3,46 106.6,68.8 c -9.4,20.2 -22.4,38 -36,55.5 -1.3,1.6 -3.1,2.8 -4.7,4.1 -0.5,0.1 -1.2,0.1 -1.9,0.1 z m 36,-79.2 c -0.4,-12.8 -5.8,-22.9 -15.3,-30 -12,-8.9 -30,-8.7 -41.9,0.4 -13.1,10 -17.9,25.4 -12.1,40.1 7.5,19 19.5,35.3 31.7,51.6 1.1,1.5 1.8,2 3.2,0.1 C 77.7,95.7 88.8,79.4 96.9,61.1 98.7,57 100,52.6 100,49.3 Z"
       fill="#cc0202"
       id="path1" />
    <path
       d="M 93,46.7 C 92.9,62.3 79.7,75.5 64.1,75.6 48.3,75.6 34.9,62.1 35.1,46.3 35.3,30.6 48.6,17.6 64.3,17.7 79.9,17.8 93,31 93,46.7 Z"
       fill="#ce2b28"
       id="path2" />
  </g>
  <defs
     id="defs2">
    <clipPath
       id="clip0_1_40">
      <rect
         width="128"
         height="128.10001"
         fill="#ffffff"
         transform="translate(0,0.5)"
         id="rect2"
         x="0"
         y="0" />
    </clipPath>
  </defs>
</svg>
