<?xml version="1.0" encoding="UTF-8" standalone="no"?>
<svg
   width="95.420753"
   height="127.90002"
   viewBox="0 0 95.420753 127.90002"
   fill="none"
   version="1.1"
   id="svg4"
   sodipodi:docname="map_referent.svg"
   inkscape:version="1.4.2 (ebf0e940d0, 2025-05-08)"
   xmlns:inkscape="http://www.inkscape.org/namespaces/inkscape"
   xmlns:sodipodi="http://sodipodi.sourceforge.net/DTD/sodipodi-0.dtd"
   xmlns="http://www.w3.org/2000/svg"
   xmlns:svg="http://www.w3.org/2000/svg">
  <sodipodi:namedview
     id="namedview4"
     pagecolor="#ffffff"
     bordercolor="#000000"
     borderopacity="0.25"
     inkscape:showpageshadow="2"
     inkscape:pageopacity="0.0"
     inkscape:pagecheckerboard="0"
     inkscape:deskcolor="#d1d1d1"
     inkscape:zoom="8.9922481"
     inkscape:cx="47.930172"
     inkscape:cy="63.943966"
     inkscape:window-width="5120"
     inkscape:window-height="1371"
     inkscape:window-x="0"
     inkscape:window-y="0"
     inkscape:window-maximized="1"
     inkscape:current-layer="svg4" />
  <g
     clip-path="url(#clip0_1_2)"
     id="g4"
     transform="translate(-16.136869,-0.599976)">
    <path
       d="M 64,128.5 C 57.7,126.6 54.8999,121.1 51.2999,116.4 39.0999,100.2 27.5,83.6 19.6,64.7 8.69995,38.7 24.5,9.19998 53.4,1.69998 c 0.9,-0.2 2,0 2.6,-1.100004 5.3,0 10.7,0 16,0 C 77.6,3.69998 84.1,4.49998 89.6,8.19998 110.2,22 117.1,45.3 106.9,67.8 c -9.5,20.8 -22.9001,39.1 -36.8001,57.1 -1.4,1.8 -3.4999,2.4 -5.1999,3.6 -0.2,0 -0.5,0 -0.9,0 z M 65,12.6 c -24.3,-0.7 -44.4,24 -34.2,47.7 7.9,18.3 19.1,34.5 30.9999,50.3 2.8,3.7 4.3001,0.5 5.5001,-1.3 C 78,94.8 87.8,79.7 96.1,63.5 107.9,40.6 89.6,12.5 65,12.6 Z"
       fill="#f8cb9c"
       id="path1" />
    <path
       d="M 63.8,79.5 C 48.4,79.4 34.9,65.7 35,50.4 35.1,35 48.8,21.5 64.1,21.6 79.5,21.7 93,35.4 92.9,50.7 92.8,66.2 79.2,79.6 63.8,79.5 Z M 76,48.6 c -0.3,-0.7 -0.4,-1.2 -0.7,-1.5 -3.2,-3.3 -6.4,-6.7 -9.7,-9.9 -1.4,-1.3 -2.9,-0.3 -4,0.8 -2.9,2.7 -5.7,5.6 -8.5,8.4 -1,1 -1.5,2.2 -0.4,3.5 1,1.1 2.4,0.7 3,-0.2 5.7,-8.1 11.1,-7.8 16.5,0.2 0.6,0.8 1.8,0.9 2.7,0.2 0.6,-0.4 0.8,-1 1.1,-1.5 z m -2.8,13.8 c 1.3,0.1 2,-0.2 2.4,-1 0.6,-1.1 0.1,-2 -0.6,-2.7 -3,-3.1 -6,-6.2 -9,-9.2 -1.1,-1.1 -2.5,-1.1 -3.6,-0.1 -3.3,3.1 -6.5,6.2 -9.6,9.3 -0.9,0.9 -1.1,2.1 -0.1,3.1 1,1.1 2.2,0.6 3.1,-0.1 1.7,-1.5 3.6,-3 5,-4.8 2.4,-3.1 4.2,-2.8 6.6,0.1 1.7,2 3.5,4.3 5.8,5.4 z"
       fill="#f8cb9c"
       id="path2" />
    <path
       d="m 76,48.6 c -0.3,0.5 -0.6,1.1 -1,1.5 -0.9,0.7 -2.2,0.6 -2.7,-0.2 -5.4,-8.1 -10.8,-8.3 -16.5,-0.2 -0.6,0.9 -2,1.3 -3,0.2 -1.1,-1.3 -0.6,-2.5 0.4,-3.5 2.8,-2.8 5.6,-5.7 8.5,-8.4 1.1,-1 2.6,-2.1 4,-0.8 3.4,3.2 6.5,6.6 9.7,9.9 0.2,0.3 0.3,0.9 0.6,1.5 z"
       fill="#231d16"
       id="path3" />
    <path
       d="m 73.2,62.4 c -2.3,-1.1 -4.1,-3.4 -5.9,-5.5 -2.4,-2.8 -4.2,-3.1 -6.6,-0.1 -1.4,1.8 -3.3,3.3 -5,4.8 -0.9,0.8 -2,1.3 -3.1,0.1 -1,-1 -0.8,-2.2 0.1,-3.1 3.2,-3.2 6.4,-6.3 9.6,-9.3 1.1,-1 2.5,-1 3.6,0.1 3,3 6.1,6.1 9,9.2 0.7,0.7 1.2,1.6 0.6,2.7 -0.3,0.9 -1,1.2 -2.3,1.1 z"
       fill="#231d16"
       id="path4" />
  </g>
  <defs
     id="defs4">
    <clipPath
       id="clip0_1_2">
      <rect
         width="128"
         height="128.10001"
         fill="#ffffff"
         transform="translate(0,0.5)"
         id="rect4"
         x="0"
         y="0" />
    </clipPath>
  </defs>
</svg>
