<?xml version="1.0" encoding="UTF-8" standalone="no"?>
<svg
   width="95.420753"
   height="127.90002"
   viewBox="0 0 95.420753 127.90002"
   fill="none"
   version="1.1"
   id="svg4"
   sodipodi:docname="map_other_particulars.svg"
   inkscape:version="1.4.2 (ebf0e940d0, 2025-05-08)"
   xmlns:inkscape="http://www.inkscape.org/namespaces/inkscape"
   xmlns:sodipodi="http://sodipodi.sourceforge.net/DTD/sodipodi-0.dtd"
   xmlns="http://www.w3.org/2000/svg"
   xmlns:svg="http://www.w3.org/2000/svg">
  <sodipodi:namedview
     id="namedview4"
     pagecolor="#ffffff"
     bordercolor="#000000"
     borderopacity="0.25"
     inkscape:showpageshadow="2"
     inkscape:pageopacity="0.0"
     inkscape:pagecheckerboard="0"
     inkscape:deskcolor="#d1d1d1"
     inkscape:zoom="8.9922481"
     inkscape:cx="47.930172"
     inkscape:cy="63.943966"
     inkscape:window-width="5120"
     inkscape:window-height="1371"
     inkscape:window-x="0"
     inkscape:window-y="0"
     inkscape:window-maximized="1"
     inkscape:current-layer="svg4" />
  <g
     clip-path="url(#clip0_1_57)"
     id="g4"
     transform="translate(-16.136869,-0.599976)">
    <path
       d="M 64,128.5 C 57.7,126.6 54.8999,121.1 51.2999,116.4 39.0999,100.2 27.5,83.6 19.6,64.7 8.69995,38.7 24.5,9.19998 53.4,1.69998 c 0.9,-0.2 2,0 2.6,-1.100004 5.3,0 10.7,0 16,0 C 77.6,3.69998 84.1,4.49998 89.6,8.19998 110.2,22 117.1,45.3 106.9,67.8 c -9.5,20.8 -22.9001,39.1 -36.8001,57.1 -1.4,1.8 -3.4999,2.4 -5.1999,3.6 -0.2,0 -0.5,0 -0.9,0 z M 64.8,12.6 c -24.2,-0.5 -44,24 -34.1,47.4 7.8,18.4 19.0999,34.5 30.8999,50.4 3,4 4.5001,0.7 5.9001,-1.2 C 78.2,94.7 88,79.6 96.2,63.4 107.8,40.6 89.6,12.3 64.8,12.6 Z"
       fill="#f8cb9c"
       id="path1" />
    <path
       d="M 64.2,21.6 C 79.6,21.7 93.1,35.3 93,50.7 92.9,66.1 79.3,79.6 63.9,79.5 48.5,79.4 35,65.8 35.1,50.4 35.2,35 48.8,21.5 64.2,21.6 Z m -0.2,27 c 3.5,0 7,0 10.4,0 1.5,0 3.3,-0.1 3.2,-2.1 0,-1.7 -1.6,-1.9 -3,-1.9 -7.1,0 -14.3,0 -21.4,0 -1.4,0 -2.9,0.2 -3,1.9 -0.1,2 1.7,2.1 3.2,2.1 3.7,0 7.1,0 10.6,0 z m 0.5,4 c -3.6,0 -7.3,0 -10.9,0 -1.5,0 -3.3,0.1 -3.2,2.2 0.1,1.6 1.6,1.8 3,1.8 7.1,0 14.3,0 21.4,0 1.4,0 2.9,-0.3 2.9,-1.9 0,-2 -1.8,-2.1 -3.3,-2.1 -3.3,-0.1 -6.6,0 -9.9,0 z"
       fill="#f8cb9c"
       id="path2" />
    <path
       d="m 64,48.6 c -3.5,0 -7,0 -10.4,0 -1.5,0 -3.3,-0.1 -3.2,-2.1 0.1,-1.7 1.6,-1.9 3,-1.9 7.1,0 14.3,0 21.4,0 1.4,0 2.9,0.2 3,1.9 0.1,2 -1.7,2.1 -3.2,2.1 -3.6,0 -7.1,0 -10.6,0 z"
       fill="#050403"
       id="path3" />
    <path
       d="m 64.5,52.6 c 3.3,0 6.6,0 9.9,0 1.5,0 3.3,0 3.3,2.1 0,1.7 -1.5,1.9 -2.9,1.9 -7.1,0 -14.3,0 -21.4,0 -1.4,0 -2.9,-0.2 -3,-1.8 -0.1,-2 1.6,-2.2 3.2,-2.2 3.6,-0.1 7.2,0 10.9,0 z"
       fill="#050403"
       id="path4" />
  </g>
  <defs
     id="defs4">
    <clipPath
       id="clip0_1_57">
      <rect
         width="128"
         height="128.10001"
         fill="#ffffff"
         transform="translate(0,0.5)"
         id="rect4"
         x="0"
         y="0" />
    </clipPath>
  </defs>
</svg>
