<?xml version="1.0" encoding="UTF-8" standalone="no"?>
<svg
   width="95.530533"
   height="127.90002"
   viewBox="0 0 95.530533 127.90002"
   fill="none"
   version="1.1"
   id="svg3"
   sodipodi:docname="map_children.svg"
   inkscape:version="1.4.2 (ebf0e940d0, 2025-05-08)"
   xmlns:inkscape="http://www.inkscape.org/namespaces/inkscape"
   xmlns:sodipodi="http://sodipodi.sourceforge.net/DTD/sodipodi-0.dtd"
   xmlns="http://www.w3.org/2000/svg"
   xmlns:svg="http://www.w3.org/2000/svg">
  <sodipodi:namedview
     id="namedview3"
     pagecolor="#ffffff"
     bordercolor="#000000"
     borderopacity="0.25"
     inkscape:showpageshadow="2"
     inkscape:pageopacity="0.0"
     inkscape:pagecheckerboard="0"
     inkscape:deskcolor="#d1d1d1"
     inkscape:zoom="8.9922481"
     inkscape:cx="47.930172"
     inkscape:cy="63.943966"
     inkscape:window-width="5120"
     inkscape:window-height="1371"
     inkscape:window-x="0"
     inkscape:window-y="0"
     inkscape:window-maximized="1"
     inkscape:current-layer="svg3" />
  <g
     clip-path="url(#clip0_1_31)"
     id="g3"
     transform="translate(-16.136893,-0.599976)">
    <path
       d="M 64,128.5 C 57.7,126.6 54.9,121.1 51.3,116.4 39.1,100.2 27.5,83.6 19.6,64.7 8.70001,38.7 24.5,9.19998 53.4,1.69998 c 0.9,-0.2 2,0 2.6,-1.100004 5.3,0 10.7,0 16,0 C 77.6,3.69998 84.1,4.59998 89.6,8.09998 107.5,19.5 118.4,43.5 107,67.7 c -9.7,20.7 -22.9,39.1 -36.8,57.1 -1.4,1.8 -3.5,2.4 -5.2,3.6 -0.3,0.1 -0.6,0.1 -1,0.1 z M 64.8,12.6 C 40.5,12.1 20.8,36.7 30.7,60 c 7.8,18.4 19.1,34.5 30.9,50.4 3,4 4.5,0.7 5.8,-1.2 C 78.1,94.7 87.9,79.6 96.1,63.4 107.8,40.6 89.6,12.4 64.8,12.6 Z"
       fill="#b6d7a8"
       id="path1" />
    <path
       d="M 63.9,79.5 C 48.5,79.4 35,65.8 35.1,50.4 35.2,35 48.8,21.5 64.2,21.6 79.6,21.7 93.1,35.3 93,50.7 92.9,66.2 79.2,79.6 63.9,79.5 Z M 62,57.2 c -2.2,-2.1 -3.7,-3.5 -5.2,-5 -1.1,-1.1 -2.3,-2.3 -3.8,-1 -1.7,1.4 -0.3,2.8 0.6,3.8 2.6,2.8 5.4,5.4 8,8.2 1.7,1.7 3.3,1.4 4.8,0 2.9,-2.7 5.7,-5.6 8.5,-8.4 1,-1 1.6,-2.3 0.4,-3.5 C 74,50 72.8,51 71.8,51.8 c -1.7,1.4 -3.3,3.1 -5.7,5.3 0,-6.2 0,-11.4 0,-16.7 0,-1.6 0.2,-3.8 -2.2,-3.6 -1.9,0.1 -1.8,2 -1.8,3.5 C 62,45.7 62,50.9 62,57.2 Z"
       fill="#b6d7a8"
       id="path2" />
    <path
       d="m 62,57.2 c 0,-6.3 0,-11.5 0,-16.8 0,-1.5 -0.1,-3.4 1.8,-3.5 2.4,-0.2 2.2,2 2.2,3.6 0,5.2 0,10.5 0,16.7 2.4,-2.2 4,-3.9 5.7,-5.3 1,-0.8 2.2,-1.9 3.5,-0.5 1.2,1.2 0.6,2.5 -0.4,3.5 -2.8,2.8 -5.6,5.7 -8.5,8.4 -1.5,1.4 -3.1,1.8 -4.8,0 -2.6,-2.8 -5.4,-5.4 -8,-8.2 -1,-1 -2.3,-2.4 -0.6,-3.8 1.5,-1.3 2.7,-0.1 3.8,1 1.5,1.3 3.1,2.7 5.3,4.9 z"
       fill="#10120e"
       id="path3" />
  </g>
  <defs
     id="defs3">
    <clipPath
       id="clip0_1_31">
      <rect
         width="128"
         height="128.10001"
         fill="#ffffff"
         transform="translate(0,0.5)"
         id="rect3"
         x="0"
         y="0" />
    </clipPath>
  </defs>
</svg>
