<?xml version="1.0" encoding="UTF-8" standalone="no"?>
<svg
   width="95.530533"
   height="127.90002"
   viewBox="0 0 95.530533 127.90002"
   fill="none"
   version="1.1"
   id="svg3"
   sodipodi:docname="map_parent.svg"
   inkscape:version="1.4.2 (ebf0e940d0, 2025-05-08)"
   xmlns:inkscape="http://www.inkscape.org/namespaces/inkscape"
   xmlns:sodipodi="http://sodipodi.sourceforge.net/DTD/sodipodi-0.dtd"
   xmlns="http://www.w3.org/2000/svg"
   xmlns:svg="http://www.w3.org/2000/svg">
  <sodipodi:namedview
     id="namedview3"
     pagecolor="#ffffff"
     bordercolor="#000000"
     borderopacity="0.25"
     inkscape:showpageshadow="2"
     inkscape:pageopacity="0.0"
     inkscape:pagecheckerboard="0"
     inkscape:deskcolor="#d1d1d1"
     inkscape:zoom="8.9922481"
     inkscape:cx="47.930172"
     inkscape:cy="63.943966"
     inkscape:window-width="5120"
     inkscape:window-height="1371"
     inkscape:window-x="0"
     inkscape:window-y="0"
     inkscape:window-maximized="1"
     inkscape:current-layer="svg3" />
  <g
     clip-path="url(#clip0_1_48)"
     id="g3"
     transform="translate(-16.136893,-0.599976)">
    <path
       d="M 64,128.5 C 57.7,126.6 54.9,121.1 51.3,116.4 39.1,100.2 27.5,83.6 19.6,64.7 8.70001,38.7 24.5,9.19998 53.4,1.69998 c 0.9,-0.2 2,0 2.6,-1.100004 5.3,0 10.7,0 16,0 C 77.6,3.69998 84.1,4.59998 89.6,8.09998 107.5,19.5 118.4,43.5 107,67.7 c -9.7,20.7 -22.9,39.1 -36.8,57.1 -1.4,1.8 -3.5,2.4 -5.2,3.6 -0.3,0.1 -0.6,0.1 -1,0.1 z M 64.8,12.6 C 40.5,12.1 20.8,36.7 30.7,60 c 7.8,18.4 19.1,34.5 30.9,50.4 3,4 4.5,0.7 5.8,-1.2 C 78.1,94.7 87.9,79.6 96.1,63.4 107.8,40.6 89.6,12.4 64.8,12.6 Z"
       fill="#b6d7a8"
       id="path1" />
    <path
       d="M 63.8,79.5 C 48.4,79.4 34.9,65.7 35.1,50.3 35.2,34.9 48.9,21.4 64.3,21.6 79.7,21.7 93.2,35.4 93,50.8 92.8,66.2 79.2,79.7 63.8,79.5 Z M 62,43.9 c 0,6.1 0,11 0,16 0,1.7 -0.6,4.3 2,4.3 2.6,0 2,-2.6 2,-4.3 0.1,-5 0,-10.1 0,-15.1 0.5,-0.3 1,-0.5 1.5,-0.8 1.3,1.7 2.6,3.4 4,5 1,1.2 2.4,2.1 3.8,0.6 1.3,-1.3 0.2,-2.6 -0.7,-3.5 -2.7,-2.9 -5.6,-5.7 -8.4,-8.5 -1.5,-1.5 -3.1,-1.2 -4.4,0.1 -3,2.8 -5.9,5.8 -8.9,8.8 -0.9,0.9 -1.2,2 -0.4,3.1 1.2,1.5 2.5,0.6 3.5,-0.3 1.9,-1.4 3.5,-3 6,-5.4 z"
       fill="#b6d7a8"
       id="path2" />
    <path
       d="m 62,43.9 c -2.5,2.4 -4.1,4 -5.9,5.5 -1,0.8 -2.3,1.7 -3.5,0.3 -0.9,-1.1 -0.6,-2.2 0.4,-3.1 2.9,-3 5.8,-5.9 8.9,-8.8 1.3,-1.2 2.9,-1.6 4.4,-0.1 2.8,2.8 5.7,5.6 8.4,8.5 0.8,0.9 2,2.2 0.7,3.5 -1.4,1.5 -2.8,0.6 -3.8,-0.6 -1.4,-1.6 -2.7,-3.4 -4,-5 -0.5,0.3 -1,0.5 -1.5,0.8 0,5 0,10.1 0,15.1 0,1.7 0.6,4.3 -2,4.3 -2.6,0 -2,-2.6 -2,-4.3 C 61.9,55 62,50 62,43.9 Z"
       fill="#10120e"
       id="path3" />
  </g>
  <defs
     id="defs3">
    <clipPath
       id="clip0_1_48">
      <rect
         width="128"
         height="128.10001"
         fill="#ffffff"
         transform="translate(0,0.5)"
         id="rect3"
         x="0"
         y="0" />
    </clipPath>
  </defs>
</svg>
