<?xml version="1.0" encoding="UTF-8" standalone="no"?>
<svg
   width="95.420731"
   height="127.90002"
   viewBox="0 0 95.420731 127.90003"
   fill="none"
   version="1.1"
   id="svg4"
   sodipodi:docname="map_particulars.svg"
   inkscape:version="1.4.2 (ebf0e940d0, 2025-05-08)"
   xmlns:inkscape="http://www.inkscape.org/namespaces/inkscape"
   xmlns:sodipodi="http://sodipodi.sourceforge.net/DTD/sodipodi-0.dtd"
   xmlns="http://www.w3.org/2000/svg"
   xmlns:svg="http://www.w3.org/2000/svg">
  <sodipodi:namedview
     id="namedview4"
     pagecolor="#ffffff"
     bordercolor="#000000"
     borderopacity="0.25"
     inkscape:showpageshadow="2"
     inkscape:pageopacity="0.0"
     inkscape:pagecheckerboard="0"
     inkscape:deskcolor="#d1d1d1"
     inkscape:zoom="8.9922481"
     inkscape:cx="47.930172"
     inkscape:cy="63.943966"
     inkscape:window-width="5120"
     inkscape:window-height="1371"
     inkscape:window-x="0"
     inkscape:window-y="0"
     inkscape:window-maximized="1"
     inkscape:current-layer="svg4" />
  <g
     clip-path="url(#clip0_1_12)"
     id="g4"
     transform="translate(-16.136893,-0.599976)">
    <path
       d="M 64,128.5 C 57.7,126.6 54.9,121.1 51.3,116.4 39.1,100.2 27.5,83.6 19.6,64.7 8.70001,38.7 24.5,9.19998 53.4,1.69998 c 0.9,-0.2 2,0 2.6,-1.100004 5.3,0 10.7,0 16,0 C 77.6,3.69998 84.1,4.49998 89.6,8.19998 110.2,22 117.1,45.3 106.9,67.8 97.4,88.6 84,106.9 70.1,124.9 c -1.4,1.8 -3.5,2.4 -5.2,3.6 -0.2,0 -0.5,0 -0.9,0 z M 65,12.6 c -24.3,-0.7 -44.4,24 -34.2,47.7 7.9,18.3 19.1,34.5 31,50.3 2.8,3.7 4.3,0.5 5.5,-1.3 C 78,94.8 87.8,79.7 96.1,63.5 107.9,40.6 89.6,12.5 65,12.6 Z"
       fill="#f8cb9c"
       id="path1" />
    <path
       d="M 93,50.7 C 92.9,66.1 79.3,79.6 63.9,79.5 48.5,79.4 35,65.8 35.1,50.4 35.2,35 48.8,21.5 64.2,21.6 79.6,21.7 93.1,35.3 93,50.7 Z M 76.1,40.5 C 75.7,40 75.4,39.3 74.9,39 c -1.5,-0.9 -2.5,0.3 -3.5,1.1 -2.5,2.2 -4.7,6.1 -7.3,6.3 -3.1,0.2 -5,-4.2 -7.6,-6.5 -1.2,-1.1 -2.5,-1.9 -3.9,-0.5 -1.3,1.3 -0.1,2.5 0.6,3.5 8.2,11.4 10.1,11.5 19.9,1.6 0.7,-0.7 1.5,-1.4 2.1,-2.1 0.4,-0.5 0.6,-1.2 0.9,-1.9 z m 0,12 C 75.7,52 75.4,51.3 74.9,51 c -1.5,-0.9 -2.5,0.2 -3.5,1.1 -2.5,2.2 -4.7,6.1 -7.3,6.3 -3.1,0.3 -5,-4.2 -7.6,-6.5 -1.2,-1 -2.4,-2 -3.9,-0.5 -1.3,1.3 -0.1,2.5 0.6,3.5 8.1,11.4 10.1,11.6 19.9,1.7 0.7,-0.7 1.5,-1.4 2.1,-2.1 0.4,-0.6 0.6,-1.2 0.9,-2 z"
       fill="#f8cb9c"
       id="path2" />
    <path
       d="m 76.1,40.5 c -0.3,0.7 -0.5,1.4 -0.9,1.9 -0.6,0.8 -1.4,1.4 -2.1,2.1 -9.8,9.9 -11.7,9.7 -19.9,-1.6 -0.7,-1 -1.9,-2.2 -0.6,-3.5 1.4,-1.5 2.6,-0.6 3.9,0.5 2.6,2.2 4.5,6.7 7.6,6.5 2.6,-0.2 4.8,-4.1 7.3,-6.3 0.9,-0.8 2,-2 3.5,-1.1 0.5,0.3 0.8,0.9 1.2,1.5 z"
       fill="#231d16"
       id="path3" />
    <path
       d="m 76.1,52.5 c -0.3,0.7 -0.5,1.4 -0.9,1.9 -0.6,0.8 -1.4,1.4 -2.1,2.1 -9.8,9.9 -11.7,9.8 -19.9,-1.7 -0.7,-1 -1.9,-2.2 -0.6,-3.5 1.4,-1.4 2.6,-0.5 3.9,0.5 2.6,2.2 4.5,6.7 7.6,6.5 2.6,-0.2 4.8,-4.1 7.3,-6.3 0.9,-0.8 2,-2 3.5,-1.1 0.5,0.4 0.8,1.1 1.2,1.6 z"
       fill="#231d16"
       id="path4" />
  </g>
  <defs
     id="defs4">
    <clipPath
       id="clip0_1_12">
      <rect
         width="128"
         height="128.10001"
         fill="#ffffff"
         transform="translate(0,0.5)"
         id="rect4"
         x="0"
         y="0" />
    </clipPath>
  </defs>
</svg>
