<?xml version="1.0" encoding="UTF-8"?>
<svg width="41px" height="20px" viewBox="0 0 41 20" version="1.1" xmlns="http://www.w3.org/2000/svg" xmlns:xlink="http://www.w3.org/1999/xlink">
    <!-- Generator: Sketch 52.6 (67491) - http://www.bohemiancoding.com/sketch -->
    <title>Group</title>
    <desc>Created with Sketch.</desc>
    <defs>
        <polygon id="path-1" points="-4.61852778e-14 0.0363438555 11.5449489 0.0363438555 11.5449489 11.3917252 -4.61852778e-14 11.3917252"></polygon>
        <polygon id="path-3" points="29.2857143 0.0363438555 40.8305457 0.0363438555 40.8305457 11.3917252 29.2857143 11.3917252"></polygon>
        <polygon id="path-5" points="13.8721805 15.558083 18.0083591 15.558083 18.0083591 19.5241237 13.8721805 19.5241237"></polygon>
    </defs>
    <g id="Page-1" stroke="none" stroke-width="1" fill="none" fill-rule="evenodd">
        <g id="Artboard" transform="translate(-1571.000000, -852.000000)">
            <g id="Group" transform="translate(1571.000000, 852.000000)">
                <g id="logo-enroute-copy" transform="translate(0.000000, 0.036344)">
                    <g id="Group-15" transform="translate(0.000000, 0.043493)"></g>
                    <g id="Group-20" transform="translate(29.117193, 0.043493)"></g>
                    <g id="Group-25" transform="translate(13.835188, 15.430429)"></g>
                </g>
                <path d="M5.11055238,17.7148334 L1.77193163,17.7148334 C1.83269794,18.5358555 2.47002085,19.0807131 3.34254195,19.0807131 C3.82812992,19.0807131 4.26081865,18.9089664 4.56428852,18.5657399 L4.8677584,18.9089664 C4.51093714,19.3269041 3.95725835,19.5509486 3.3274408,19.5509486 C2.08299729,19.5509486 1.23308271,18.7149843 1.23308271,17.5507358 C1.23308271,16.3864872 2.06020992,15.558083 3.18321123,15.558083 C4.30612211,15.558083 5.11796732,16.371456 5.11796732,17.5507358 C5.11796732,17.5953846 5.11055238,17.6551535 5.11055238,17.7148334 M1.77193163,17.3193091 L4.60226747,17.3193091 C4.53390536,16.5505849 3.96467328,16.0131983 3.18321123,16.0131983 C2.40934496,16.0131983 1.84011288,16.5505849 1.77193163,17.3193091" id="Fill-1" fill="#444444"></path>
                <path d="M11.07097,17.2372158 L11.07097,19.513593 L10.532302,19.513593 L10.532302,17.2896025 C10.532302,16.4610204 10.0922887,16.0357896 9.33325233,16.0357896 C8.47601323,16.0357896 7.93716431,16.558056 7.93716431,17.4537002 L7.93716431,19.513593 L7.39849624,19.513593 L7.39849624,15.5877896 L7.91446737,15.5877896 L7.91446737,16.3117761 C8.20283609,15.8341584 8.74150416,15.558083 9.43199759,15.558083 C10.4031735,15.558083 11.07097,16.1103228 11.07097,17.2372158" id="Fill-3" fill="#444444"></path>
                <path d="M19.4210526,17.5507358 C19.4210526,16.3864872 20.2858875,15.558083 21.4543731,15.558083 C22.6229492,15.558083 23.4804595,16.3864872 23.4804595,17.5507358 C23.4804595,18.7149843 22.6229492,19.5508596 21.4543731,19.5508596 C20.2858875,19.5508596 19.4210526,18.7149843 19.4210526,17.5507358 M22.9341957,17.5507358 C22.9341957,16.6328561 22.3041973,16.0207584 21.4543731,16.0207584 C20.604549,16.0207584 19.9674069,16.6328561 19.9674069,17.5507358 C19.9674069,18.4686154 20.604549,19.0807131 21.4543731,19.0807131 C22.3041973,19.0807131 22.9341957,18.4686154 22.9341957,17.5507358" id="Fill-5" fill="#444444"></path>
                <path d="M29.5294125,15.558083 L29.5294125,19.4838864 L29.0134414,19.4838864 L29.0134414,18.7673711 C28.732578,19.2449887 28.2166973,19.521242 27.5793744,19.521242 C26.5624429,19.521242 25.8947368,18.9613532 25.8947368,17.8344602 L25.8947368,15.558083 L26.4336762,15.558083 L26.4336762,17.7822513 C26.4336762,18.6180377 26.873599,19.0435354 27.6323641,19.0435354 C28.4671775,19.0435354 28.9905636,18.51362 28.9905636,17.6180647 L28.9905636,15.558083 L29.5294125,15.558083 Z" id="Fill-7" fill="#444444"></path>
                <path d="M34.4757841,19.1902339 C34.2632828,19.3769228 33.9448022,19.4663983 33.6336461,19.4663983 C32.8822959,19.4663983 32.4650701,19.0484606 32.4650701,18.324563 L32.4650701,15.9513282 L31.7518797,15.9513282 L31.7518797,15.5033282 L32.4650701,15.5033282 L32.4650701,14.6450395 L33.0037381,14.6450395 L33.0037381,15.5033282 L34.2177081,15.5033282 L34.2177081,15.9513282 L33.0037381,15.9513282 L33.0037381,18.2946786 C33.0037381,18.7574429 33.2464417,19.011105 33.6942316,19.011105 C33.9142382,19.011105 34.1343352,18.943865 34.2860702,18.8096518 L34.4757841,19.1902339 Z" id="Fill-9" fill="#444444"></path>
                <path d="M40.2532287,17.7148334 L36.9146079,17.7148334 C36.9752838,18.5358555 37.6126971,19.0807131 38.4852182,19.0807131 C38.9708062,19.0807131 39.4034045,18.9089664 39.7068744,18.5657399 L40.0103443,18.9089664 C39.6537943,19.3269041 39.0998442,19.5509486 38.4699362,19.5509486 C37.225764,19.5509486 36.3759398,18.7149843 36.3759398,17.5507358 C36.3759398,16.3864872 37.2028862,15.558083 38.3258875,15.558083 C39.4487984,15.558083 40.2608245,16.371456 40.2608245,17.5507358 C40.2608245,17.5953846 40.2532287,17.6551535 40.2532287,17.7148334 M36.9146079,17.3193091 L39.7446725,17.3193091 C39.6764912,16.5505849 39.1075304,16.0131983 38.3258875,16.0131983 C37.5519308,16.0131983 36.98297,16.5505849 36.9146079,17.3193091" id="Fill-11" fill="#444444"></path>
                <mask id="mask-2" fill="white">
                    <use xlink:href="#path-1"></use>
                </mask>
                <g id="Clip-14"></g>
                <path d="M11.544967,5.71403454 C11.544967,2.57830137 8.96049965,0.0363438555 5.7724383,0.0363438555 C2.58437694,0.0363438555 -1.24344979e-13,2.57830137 -1.24344979e-13,5.71403454 C-1.24344979e-13,8.84976772 2.58437694,11.3917252 5.7724383,11.3917252 C8.96049965,11.3917252 11.544967,8.84976772 11.544967,5.71403454" id="Fill-13" fill="#444444" mask="url(#mask-2)"></path>
                <mask id="mask-4" fill="white">
                    <use xlink:href="#path-3"></use>
                </mask>
                <g id="Clip-19"></g>
                <path d="M35.0581526,9.72326544 C32.8069053,9.72326544 30.9819264,7.92824141 30.9819264,5.71403454 C30.9819264,3.49973873 32.8069053,1.70480365 35.0581526,1.70480365 C37.3093999,1.70480365 39.1342883,3.49973873 39.1342883,5.71403454 C39.1342883,7.92824141 37.3093999,9.72326544 35.0581526,9.72326544 M35.0581526,0.0363438555 C31.8700912,0.0363438555 29.2857143,2.57830137 29.2857143,5.71403454 C29.2857143,8.84976772 31.8700912,11.3917252 35.0581526,11.3917252 C38.2462139,11.3917252 40.8305909,8.84976772 40.8305909,5.71403454 C40.8305909,2.57830137 38.2462139,0.0363438555 35.0581526,0.0363438555" id="Fill-18" fill="#444444" mask="url(#mask-4)"></path>
                <path d="M36.9893821,5.8095136 C36.9893821,6.98087751 36.023903,7.93050943 34.8329917,7.93050943 C33.64199,7.93050943 32.6766917,6.98087751 32.6766917,5.8095136 C32.6766917,4.63806075 33.64199,3.68851777 34.8329917,3.68851777 C36.023903,3.68851777 36.9893821,4.63806075 36.9893821,5.8095136" id="Fill-21" fill="#444444" mask="url(#mask-4)"></path>
                <mask id="mask-6" fill="white">
                    <use xlink:href="#path-5"></use>
                </mask>
                <g id="Clip-24"></g>
                <path d="M15.4084289,17.8374842 L14.409673,17.8374842 L14.409673,15.9977225 L15.4084289,15.9977225 C16.1660184,15.9977225 16.5741113,16.3252063 16.5741113,16.9176478 C16.5741113,17.5042192 16.1660184,17.8374842 15.4084289,17.8374842 Z M17.7214372,18.8966035 C17.5592128,19.0204995 17.4847018,19.0639031 17.288658,19.0639031 C17.0209065,19.0639031 16.7280164,18.8777479 16.5049353,18.5660068 L16.2070719,18.1555402 C16.7764848,17.9588898 17.1129602,17.5285003 17.1129602,16.9176478 C17.1129602,16.0532222 16.4671372,15.558083 15.4389929,15.558083 L13.8721805,15.558083 L13.8721805,19.4838864 L14.409673,19.4838864 L14.409673,18.2700973 L15.4389929,18.2700973 C15.5258923,18.2700973 15.6130631,18.2643161 15.6989678,18.2575565 L16.1220714,18.8307866 C16.4372966,19.2714933 16.8627513,19.5241771 17.288658,19.5241771 C17.6345377,19.5241771 17.8123154,19.4097979 18.0083591,19.2602867 L17.7214372,18.8966035 Z" id="Fill-23" fill="#444444" mask="url(#mask-6)"></path>
                <path d="M20.2611601,9.72326544 C18.0099128,9.72326544 16.1850244,7.92824141 16.1850244,5.71403454 C16.1850244,3.49973873 18.0099128,1.70480365 20.2611601,1.70480365 C22.5124074,1.70480365 24.3373863,3.49973873 24.3373863,5.71403454 C24.3373863,7.92824141 22.5124074,9.72326544 20.2611601,9.72326544 M20.2611601,0.0363438555 C17.0731892,0.0363438555 14.4887218,2.57830137 14.4887218,5.71403454 C14.4887218,8.84976772 17.0731892,11.3917252 20.2611601,11.3917252 C23.4493119,11.3917252 26.0336888,8.84976772 26.0336888,5.71403454 C26.0336888,2.57830137 23.4493119,0.0363438555 20.2611601,0.0363438555" id="Fill-16" fill="#444444"></path>
            </g>
        </g>
    </g>
</svg>