<svg xmlns="http://www.w3.org/2000/svg" viewBox="0 0 716.84 220.76"><defs><style>.cls-1{fill:#5b4072;}.cls-2{fill:#fff;}.cls-3{fill:#db8101;}.cls-4{fill:#15130e;}.cls-5{fill:#f5f5f6;}.cls-6{fill:#08b4c1;}.cls-7{fill:#242424;}</style></defs><title>logo-chouette-2020-saas</title><g id="Calque_2" data-name="Calque 2"><g id="Calque_1-2" data-name="Calque 1"><path class="cls-1" d="M54.83,60.9a9.41,9.41,0,0,1-.1,1.49,12.16,12.16,0,0,1-24.15,0,8.81,8.81,0,0,1-.1-1.46,12.18,12.18,0,1,1,24.35,0Z"/><path class="cls-1" d="M105.16,64.18a10.8,10.8,0,0,1-.48-3.28,12.18,12.18,0,1,1,24.36,0,11.82,11.82,0,0,1-1,4.87,12.13,12.13,0,0,1-22.83-1.59Z"/><path class="cls-1" d="M159.19,79.6A79.6,79.6,0,0,0,0,79.6c0,2.54,0,5.05.18,7.54C4.23,128.53,21.87,158.43,39.61,178s35.54,28.78,40,28.78a1.74,1.74,0,0,0,.5-.13c-3.94-4.92-5.85-11.24-6-18.3.94.72,1.86,1.41,2.76,2.06s1.79,1.27,2.66,1.87a83.32,83.32,0,0,0,8.18,5c.7.34,1.35.69,2,1,.92.44,1.79.82,2.56,1.12,4.18-2.77,7.76-5.28,7.76-5.28h0a43.7,43.7,0,0,0,5.55-3.93c.12-.1.22-.2.32-.3.37-.32.77-.64,1.15-1a158.06,158.06,0,0,0,46.44-73.61,156.31,156.31,0,0,0,5.35-27.19c0-.15,0-.3.07-.42a3.68,3.68,0,0,1,.05-.5h0C159.06,84.65,159.19,82.14,159.19,79.6Zm-8.91-12.41c-3.88,36-35.15,56-67.19,57.31-1.12.08-2.21.1-3.33.1h-.38c-1.66,0-3.33-.07-5-.17-22.24-1.39-43.88-11.77-56-30.23a60.28,60.28,0,0,1-9.7-28.68c0-.25,0-.49-.08-.74a33.13,33.13,0,0,1-.17-3.46A35.58,35.58,0,0,1,79.58,60l-1.71,3L70.48,75.75l0,0,0,0,9.18,15.87v-.28l9-15.69L81.4,63.09l-1.74-3V60l0,0a35.57,35.57,0,0,1,71.12,1.32A38,38,0,0,1,150.28,67.19Z"/><path class="cls-2" d="M115.18,25.75a35,35,0,0,0-13.53,2.68h0a35.77,35.77,0,0,0-18,16.42,35.31,35.31,0,0,0-4,15.15l0,0v.07l1.74,3,.42.74,6.89,11.92-4.9,8.48-4.15,7.21v.28L70.48,75.85l0,0,0,0L77.87,63l1.71-3a35.56,35.56,0,0,0-49-31.62,5.36,5.36,0,0,0-.62.25A35.54,35.54,0,0,0,8.44,61.32a33.13,33.13,0,0,0,.17,3.46l.08.74a60.28,60.28,0,0,0,9.7,28.68c12.14,18.46,33.78,28.84,56,30.23,1.64.1,3.31.17,5,.17h.38c1.12,0,2.21,0,3.33-.1a79.11,79.11,0,0,0,37.44-11c15.77-9.58,27.46-25.18,29.75-46.27a38,38,0,0,0,.47-5.87A35.56,35.56,0,0,0,115.18,25.75ZM40.4,48.93a11.49,11.49,0,0,1,2.27-.22A12.19,12.19,0,0,1,54.83,60.9a9.41,9.41,0,0,1-.1,1.49,12.16,12.16,0,0,1-24.15,0,8.81,8.81,0,0,1-.1-1.46A12.19,12.19,0,0,1,40.4,48.93Zm-31,20.75V69.6l.07.33C9.46,69.85,9.43,69.78,9.41,69.68ZM128,65.77a12,12,0,0,1-2.41,3.63,12.14,12.14,0,0,1-20.42-5.22,10.85,10.85,0,0,1-.48-3.28,12.18,12.18,0,0,1,9.93-12,11.18,11.18,0,0,1,2.26-.22A12.19,12.19,0,0,1,129,60.9,11.82,11.82,0,0,1,128,65.77Z"/><path class="cls-2" d="M54.73,62.39a12.16,12.16,0,0,1-24.15,0C37.59,62.26,45.85,62.26,54.73,62.39Z"/><path class="cls-2" d="M88.71,75.75l-9,15.69v.28L70.48,75.85l0,0,0,0L77.87,63s0,0,0,0c.54,0,1.09,0,1.64,0,0,0,.07,0,.1,0,.57,0,1.14,0,1.74.05Z"/><path class="cls-2" d="M128,65.77a12.13,12.13,0,0,1-22.83-1.59C113.54,64.65,121.35,65.17,128,65.77Z"/><path class="cls-2" d="M54.83,60.9a9.41,9.41,0,0,1-.1,1.49,12.16,12.16,0,0,1-24.15,0,8.81,8.81,0,0,1-.1-1.46,12.18,12.18,0,1,1,24.35,0Z"/><path class="cls-2" d="M81.4,63.09l7.31,12.66-9,15.69v.28L70.48,75.85l0,0,0,0L77.87,63l1.71-3v.09c0,.4,0,.8,0,1.2,0,.57,0,1.14,0,1.72,0,0,.07,0,.1,0,0-.58,0-1.15,0-1.72s0-.87,0-1.29v0l0,0v.07Z"/><path class="cls-2" d="M129,60.9a11.82,11.82,0,0,1-1,4.87,12.13,12.13,0,0,1-22.83-1.59,10.8,10.8,0,0,1-.48-3.28,12.18,12.18,0,1,1,24.36,0Z"/><polygon class="cls-3" points="88.71 75.75 79.66 91.44 79.61 91.52 70.5 75.8 70.48 75.75 77.87 62.99 79.58 60.03 79.61 59.98 79.63 60 79.63 60.03 79.66 60.05 81.4 63.09 88.71 75.75"/><path class="cls-4" d="M54.83,60.9a9.41,9.41,0,0,1-.1,1.49,12.16,12.16,0,0,1-24.15,0,8.81,8.81,0,0,1-.1-1.46,12.18,12.18,0,1,1,24.35,0Z"/><path class="cls-5" d="M50.52,56.16A3.13,3.13,0,1,1,47.4,53,3.13,3.13,0,0,1,50.52,56.16Z"/><path class="cls-4" d="M129,60.9a11.82,11.82,0,0,1-1,4.87,12.13,12.13,0,0,1-22.83-1.59,10.8,10.8,0,0,1-.48-3.28,12.18,12.18,0,1,1,24.36,0Z"/><path class="cls-5" d="M125,56.16A3.12,3.12,0,1,1,121.9,53,3.13,3.13,0,0,1,125,56.16Z"/><path class="cls-6" d="M96.89,137.47c-15.59,15.6-23,35.44-22.77,50.84.12,7.05,1.91,13.46,5.81,18.39a24.87,24.87,0,0,0,3.59-1.85c.25-.14.5-.3.76-.46.53-.31,1.09-.64,1.67-1l.87-.54L89.69,201l1.66-1.09s0,0,.05,0c.29-.19.56-.39.85-.56v0l7.61-5,.06,0a46.19,46.19,0,0,0,5.53-4.07l.07-.06.31-.28c.38-.33.77-.67,1.14-1a157.87,157.87,0,0,0,46.45-73.61C137.2,112.39,114.47,119.89,96.89,137.47Z"/><path class="cls-1" d="M238,123.29a37.22,37.22,0,0,1-11.8,2,39.2,39.2,0,0,1-17.9-3.88,28.05,28.05,0,0,1-12-11.21A33.83,33.83,0,0,1,192,93a31.9,31.9,0,0,1,4.46-17,30.35,30.35,0,0,1,11.93-11.25,34,34,0,0,1,16-3.94q14.48,0,23.92,7.78l-8.09,10.59a26.32,26.32,0,0,0-6.46-3.68A20.43,20.43,0,0,0,225.9,74a16.61,16.61,0,0,0-12.52,5.46A18.93,18.93,0,0,0,208.26,93a18.47,18.47,0,0,0,5.46,13.54,18.77,18.77,0,0,0,13.85,5.4,18.46,18.46,0,0,0,12.16-4.08L247.86,118A31.07,31.07,0,0,1,238,123.29Z"/><path class="cls-1" d="M312.24,64.76A17.46,17.46,0,0,1,318.14,78l.08,45.49-16.22,0-.08-39.69a11.82,11.82,0,0,0-2.84-7.53q-2.54-2.74-7.61-2.88-7.53,0-12.37,6.54t-4.82,16.38l.05,27.24-16.23,0-.22-88.95,15.94,0,.12,38.1a26,26,0,0,1,9.62-9.51A28.38,28.38,0,0,1,298,59.64,20.56,20.56,0,0,1,312.24,64.76Z"/><path class="cls-1" d="M334.33,75.5a31.29,31.29,0,0,1,12.22-11.82,39.15,39.15,0,0,1,35.56-.08,30.23,30.23,0,0,1,12,11.72A33.48,33.48,0,0,1,398.32,92a33.41,33.41,0,0,1-4.17,16.74,30.5,30.5,0,0,1-11.93,11.83A36,36,0,0,1,364.34,125a38.48,38.48,0,0,1-17.68-4,29.49,29.49,0,0,1-12.27-11.43,33.6,33.6,0,0,1-4.45-17.44A32.36,32.36,0,0,1,334.33,75.5Zm17.08,30.62a17.37,17.37,0,0,0,25.42,0,19.9,19.9,0,0,0,5-13.92,20.16,20.16,0,0,0-5-14A16.46,16.46,0,0,0,364,72.69a16.15,16.15,0,0,0-12.59,5.75,20.14,20.14,0,0,0-5.05,13.85A19.82,19.82,0,0,0,351.41,106.12Z"/><path class="cls-1" d="M468.69,61.92l.11,61.28-14.63,0-1-11a24.16,24.16,0,0,1-9.4,9.94,27.31,27.31,0,0,1-14.19,3.72,19.83,19.83,0,0,1-14-5.11,17.64,17.64,0,0,1-5.75-13.25L409.72,62,426,62l.07,39.7q.47,10.14,10,10.26,7.09,0,11.8-6.54T452.51,89L452.46,62Z"/><path class="cls-1" d="M529.08,106l7.41,12a47.84,47.84,0,0,1-10.56,4.87,35.24,35.24,0,0,1-10.86,1.83,37.86,37.86,0,0,1-18.34-4.16A29.23,29.23,0,0,1,484.83,109,34,34,0,0,1,480.67,92a30.86,30.86,0,0,1,4.6-16.53,33.77,33.77,0,0,1,12.58-12,35.31,35.31,0,0,1,17.38-4.45q12.45,0,20.73,7.28T547,87l-47.2,16a16.35,16.35,0,0,0,6.53,5.78,19.72,19.72,0,0,0,9,2Q522.13,110.78,529.08,106ZM501.43,77.21q-4.85,5.37-4.83,13.92a15.39,15.39,0,0,0,.15,2.46l32.14-11.51a18.39,18.39,0,0,0-5.52-7.38A14.7,14.7,0,0,0,514,71.82,16.17,16.17,0,0,0,501.43,77.21Z"/><path class="cls-1" d="M579.27,34.76l.05,26.94,15.94,0,0,12.75-15.93,0,.09,48.53-16.22,0-.1-48.54-10.57,0,0-12.75,10.58,0L563,34.79Z"/><path class="cls-1" d="M629.32,34.66l0,26.94,15.94,0,0,12.75-15.93,0,.09,48.53-16.22,0-.1-48.54-10.57,0,0-12.74,10.58,0,0-26.94Z"/><path class="cls-1" d="M698.91,105.65l7.41,12a47.87,47.87,0,0,1-10.56,4.88,35.55,35.55,0,0,1-10.87,1.83,37.82,37.82,0,0,1-18.33-4.17,29.23,29.23,0,0,1-11.91-11.56,34.26,34.26,0,0,1-4.16-16.94,30.87,30.87,0,0,1,4.61-16.53,33.69,33.69,0,0,1,12.58-12,35.31,35.31,0,0,1,17.38-4.45q12.45,0,20.73,7.28t11.05,20.62l-47.2,16a16.29,16.29,0,0,0,6.53,5.78,19.72,19.72,0,0,0,9,2Q692,110.45,698.91,105.65ZM671.26,76.88q-4.86,5.37-4.83,13.92a15.39,15.39,0,0,0,.15,2.46l32.14-11.51a18.49,18.49,0,0,0-5.52-7.38,14.7,14.7,0,0,0-9.42-2.88A16.12,16.12,0,0,0,671.26,76.88Z"/><path class="cls-7" d="M197.78,197.12a11.15,11.15,0,0,0,4.55,4.27,13.9,13.9,0,0,0,6.36,1.4,13.5,13.5,0,0,0,4.18-.63,10.79,10.79,0,0,0,3.4-1.79,8.38,8.38,0,0,0,2.29-2.77,7.85,7.85,0,0,0,.84-3.67,6.7,6.7,0,0,0-1-3.88,8.29,8.29,0,0,0-2.79-2.52,21.34,21.34,0,0,0-3.95-1.69c-1.45-.47-3-.93-4.51-1.4s-3.05-1-4.51-1.59a15.35,15.35,0,0,1-3.94-2.33,10.21,10.21,0,0,1-2.79-3.6,12.21,12.21,0,0,1-1.05-5.35,11.09,11.09,0,0,1,1.25-5.32,11.55,11.55,0,0,1,3.36-3.89,15.32,15.32,0,0,1,4.89-2.36,20.82,20.82,0,0,1,5.79-.79,19.69,19.69,0,0,1,7.24,1.3,13.69,13.69,0,0,1,5.76,4.37l-3.84,2.61a11.15,11.15,0,0,0-3.94-3.35A12,12,0,0,0,210,163a15.33,15.33,0,0,0-4.11.54,10.37,10.37,0,0,0-3.4,1.59,7.92,7.92,0,0,0-2.33,2.65,7.71,7.71,0,0,0-.87,3.76,7,7,0,0,0,1.82,5.19,12.83,12.83,0,0,0,4.54,2.87,49.94,49.94,0,0,0,5.93,1.85,29.58,29.58,0,0,1,5.92,2.13,12.61,12.61,0,0,1,4.55,3.73,10.66,10.66,0,0,1,1.82,6.59,11.79,11.79,0,0,1-1.21,5.42,12,12,0,0,1-3.27,4,14.21,14.21,0,0,1-4.75,2.46,19,19,0,0,1-5.59.83,23.4,23.4,0,0,1-8.69-1.57,15.7,15.7,0,0,1-6.8-5.25Z"/><path class="cls-7" d="M258.33,193.11c0,1.44,0,2.74,0,3.88s.05,2.21.09,3.19.11,1.89.17,2.74.17,1.7.31,2.55h-3.78a27,27,0,0,1-.4-4.78h-.13a11.15,11.15,0,0,1-4.35,4.21,14.26,14.26,0,0,1-6.56,1.33,17.12,17.12,0,0,1-4-.47,10.74,10.74,0,0,1-3.5-1.53,8.53,8.53,0,0,1-2.53-2.71,7.8,7.8,0,0,1-1-4,7.56,7.56,0,0,1,1.82-5.35,11.27,11.27,0,0,1,4.48-3,22.06,22.06,0,0,1,5.65-1.28c2-.19,3.76-.28,5.29-.28h4.71v-1.79c0-2.55-.83-4.37-2.49-5.48a11.11,11.11,0,0,0-6.26-1.65,14.7,14.7,0,0,0-9.5,3.31l-2.36-2.61a14.66,14.66,0,0,1,5.53-3.09,20.58,20.58,0,0,1,6.33-1.06q5.66,0,9,2.52t3.37,8.13Zm-8.08-2.42a37.8,37.8,0,0,0-4.95.31,18.36,18.36,0,0,0-4.31,1.09,8.1,8.1,0,0,0-3.07,2,4.59,4.59,0,0,0-1.14,3.18,4.48,4.48,0,0,0,.64,2.39,5.32,5.32,0,0,0,1.65,1.72,7.68,7.68,0,0,0,2.25,1,9.14,9.14,0,0,0,2.53.35,13.51,13.51,0,0,0,5.32-.89,9,9,0,0,0,3.33-2.32,7.79,7.79,0,0,0,1.72-3.26,14.25,14.25,0,0,0,.47-3.66v-2Z"/><path class="cls-7" d="M294.63,193.11c0,1.44,0,2.74,0,3.88s.05,2.21.1,3.19.1,1.89.16,2.74.17,1.7.31,2.55h-3.77a26,26,0,0,1-.41-4.78h-.13a11.15,11.15,0,0,1-4.35,4.21,14.26,14.26,0,0,1-6.56,1.33,17.12,17.12,0,0,1-4-.47,10.74,10.74,0,0,1-3.5-1.53,8.53,8.53,0,0,1-2.53-2.71,7.8,7.8,0,0,1-1-4,7.56,7.56,0,0,1,1.82-5.35,11.27,11.27,0,0,1,4.48-3,22.16,22.16,0,0,1,5.65-1.28c2-.19,3.76-.28,5.29-.28H291v-1.79c0-2.55-.84-4.37-2.5-5.48a11.11,11.11,0,0,0-6.26-1.65,14.7,14.7,0,0,0-9.5,3.31l-2.36-2.61a14.66,14.66,0,0,1,5.53-3.09,20.58,20.58,0,0,1,6.33-1.06q5.65,0,9,2.52t3.37,8.13Zm-8.08-2.42a37.8,37.8,0,0,0-4.95.31,18.36,18.36,0,0,0-4.31,1.09,8.1,8.1,0,0,0-3.07,2,4.59,4.59,0,0,0-1.14,3.18,4.48,4.48,0,0,0,.64,2.39,5.43,5.43,0,0,0,1.65,1.72,7.63,7.63,0,0,0,2.26,1,9,9,0,0,0,2.52.35,13.51,13.51,0,0,0,5.32-.89,9.14,9.14,0,0,0,3.34-2.32,7.88,7.88,0,0,0,1.71-3.26,14.26,14.26,0,0,0,.48-3.66v-2Z"/><path class="cls-7" d="M308.62,197.72a10.34,10.34,0,0,0,4.22,4,13,13,0,0,0,5.91,1.3,12.27,12.27,0,0,0,3.88-.59,9.81,9.81,0,0,0,3.16-1.66,7.76,7.76,0,0,0,2.12-2.57,7.28,7.28,0,0,0,.79-3.4,6.32,6.32,0,0,0-1-3.61,7.55,7.55,0,0,0-2.6-2.34,19.85,19.85,0,0,0-3.66-1.57c-1.35-.43-2.75-.86-4.19-1.3a44.14,44.14,0,0,1-4.19-1.48,14.25,14.25,0,0,1-3.66-2.16,9.57,9.57,0,0,1-2.59-3.34,11.35,11.35,0,0,1-1-5,10.21,10.21,0,0,1,1.16-4.94,10.73,10.73,0,0,1,3.12-3.61,14.18,14.18,0,0,1,4.54-2.19,19.4,19.4,0,0,1,5.37-.74,18.46,18.46,0,0,1,6.73,1.21,12.74,12.74,0,0,1,5.35,4.06l-3.57,2.42a10.24,10.24,0,0,0-3.66-3.1,11.08,11.08,0,0,0-5-1,14.36,14.36,0,0,0-3.81.5A9.81,9.81,0,0,0,313,168a7.31,7.31,0,0,0-2.16,2.46A7.14,7.14,0,0,0,310,174a6.49,6.49,0,0,0,1.69,4.82,11.8,11.8,0,0,0,4.22,2.66,44.5,44.5,0,0,0,5.5,1.72,27.31,27.31,0,0,1,5.5,2,11.69,11.69,0,0,1,4.23,3.47,9.89,9.89,0,0,1,1.68,6.12,10.86,10.86,0,0,1-1.12,5,11.13,11.13,0,0,1-3,3.7,13.41,13.41,0,0,1-4.4,2.27,17.37,17.37,0,0,1-5.2.78,21.8,21.8,0,0,1-8.06-1.46,14.57,14.57,0,0,1-6.32-4.88Z"/><path class="cls-7" d="M358.49,161.83h4v19.36h.13a10.08,10.08,0,0,1,2.36-2.64,14.09,14.09,0,0,1,3.07-1.85,16.21,16.21,0,0,1,3.46-1.09,19.27,19.27,0,0,1,3.57-.35,18.35,18.35,0,0,1,6.57,1.15,15.63,15.63,0,0,1,5.19,3.22,14.63,14.63,0,0,1,3.4,4.9,16.57,16.57,0,0,1,0,12.43,14.57,14.57,0,0,1-3.4,4.91,15.63,15.63,0,0,1-5.19,3.22,19.1,19.1,0,0,1-10.14.79,15.64,15.64,0,0,1-3.46-1.08A14.09,14.09,0,0,1,365,203a10.08,10.08,0,0,1-2.36-2.64h-.13v5.16h-4Zm3.64,28.92a11.08,11.08,0,0,0,1,4.68,12.13,12.13,0,0,0,2.77,3.83,13.28,13.28,0,0,0,4.11,2.58,13.58,13.58,0,0,0,5.11.95,13.27,13.27,0,0,0,5.12-.95,12,12,0,0,0,3.91-2.58,11,11,0,0,0,2.46-3.83,13.49,13.49,0,0,0,0-9.37,11,11,0,0,0-2.46-3.82,12,12,0,0,0-3.91-2.58,13.09,13.09,0,0,0-5.12-.95,13.42,13.42,0,0,0-9.22,3.53,12.09,12.09,0,0,0-2.77,3.82A11.16,11.16,0,0,0,362.13,190.75Z"/><path class="cls-7" d="M410.62,214.58a11.07,11.07,0,0,1-3.17,4.53,8.24,8.24,0,0,1-5.39,1.65,12.59,12.59,0,0,1-2-.16,17.26,17.26,0,0,1-2-.41l.41-3.57c.58.17,1.17.33,1.78.48a7.67,7.67,0,0,0,1.85.22,4.12,4.12,0,0,0,1.92-.44,5.08,5.08,0,0,0,1.45-1.15,8,8,0,0,0,1-1.56c.29-.58.55-1.16.78-1.75l2.83-6.82L397.49,176H402l10.3,24.79,10-24.79h4.31Z"/><path class="cls-7" d="M454.75,192.47a7.19,7.19,0,0,0,.91,3.6,9.07,9.07,0,0,0,2.39,2.77,11.23,11.23,0,0,0,3.44,1.79,13,13,0,0,0,4,.63,9.4,9.4,0,0,0,4.91-1.24,15.67,15.67,0,0,0,3.84-3.28l4.58,3.31q-5.06,6.18-14.14,6.18a18.39,18.39,0,0,1-6.84-1.21,14.84,14.84,0,0,1-5.18-3.34,14.63,14.63,0,0,1-3.27-5,17,17,0,0,1-1.15-6.27,15.72,15.72,0,0,1,1.25-6.28,15.46,15.46,0,0,1,8.66-8.38,17.57,17.57,0,0,1,6.6-1.21,16.6,16.6,0,0,1,7.17,1.4,14,14,0,0,1,7.54,8.76,20.24,20.24,0,0,1,.84,5.77v2Zm19.13-4.59a11.7,11.7,0,0,0-.64-3.5,7.74,7.74,0,0,0-1.72-2.78,7.93,7.93,0,0,0-2.86-1.84,10.94,10.94,0,0,0-4-.67,10.19,10.19,0,0,0-4.07.79,10.33,10.33,0,0,0-3.14,2.07,9.71,9.71,0,0,0-2,2.84,7.47,7.47,0,0,0-.71,3.09Z"/><path class="cls-7" d="M489,175.26H495v4.66h.14a8.61,8.61,0,0,1,4-3.92,13.78,13.78,0,0,1,6.54-1.5,14.51,14.51,0,0,1,4.41.67,10,10,0,0,1,3.7,2.07,9.86,9.86,0,0,1,2.53,3.6,13.25,13.25,0,0,1,.94,5.19v19.44h-6.06V187.63a9.5,9.5,0,0,0-.61-3.61A6.62,6.62,0,0,0,509,181.6a6.16,6.16,0,0,0-2.33-1.33,8.86,8.86,0,0,0-2.73-.42,10.24,10.24,0,0,0-3.5.58,7.34,7.34,0,0,0-2.83,1.81,8.57,8.57,0,0,0-1.88,3.16,13.56,13.56,0,0,0-.68,4.52v15.55H489Z"/><path class="cls-7" d="M529.81,165.22h18.45c8.07,0,16,3.44,16,12.9,0,7.29-6.07,12.14-13.39,12.55,4.13,4,9,10,14.2,10a12.88,12.88,0,0,0,5.13-1.12l.69,5a16.34,16.34,0,0,1-6.82,1.54c-9.38,0-16.32-11.95-21.33-15.39h-6.44v14.8h-6.5Zm6.5,5.39v15.15h12.63c4.76,0,8.51-2.78,8.51-7.52,0-5.15-3.75-7.63-8.51-7.63Z"/><path class="cls-7" d="M575.61,190.37a14.81,14.81,0,0,1,1.31-6.19,16.2,16.2,0,0,1,3.61-5,17,17,0,0,1,5.38-3.41,18.56,18.56,0,0,1,13.34,0,17.12,17.12,0,0,1,5.39,3.41,16.17,16.17,0,0,1,3.6,5,15.22,15.22,0,0,1,0,12.4,15.61,15.61,0,0,1-3.6,5,17.23,17.23,0,0,1-5.39,3.38,18.56,18.56,0,0,1-13.34,0,17.06,17.06,0,0,1-5.38-3.38,15.63,15.63,0,0,1-3.61-5A14.94,14.94,0,0,1,575.61,190.37Zm6.47,0a11.61,11.61,0,0,0,.74,4.23,9.44,9.44,0,0,0,2.09,3.32,9.72,9.72,0,0,0,3.3,2.17,12.51,12.51,0,0,0,8.75,0,9.92,9.92,0,0,0,3.3-2.17,9.58,9.58,0,0,0,2.09-3.32,12.49,12.49,0,0,0,0-8.47,9.58,9.58,0,0,0-2.09-3.32,9.75,9.75,0,0,0-3.3-2.16,12.36,12.36,0,0,0-8.75,0,9.56,9.56,0,0,0-3.3,2.16,9.44,9.44,0,0,0-2.09,3.32A11.66,11.66,0,0,0,582.08,190.37Z"/><path class="cls-7" d="M646.8,205.47h-6.06v-4.65h-.14a8.66,8.66,0,0,1-4,3.92,13.88,13.88,0,0,1-6.53,1.49,14.35,14.35,0,0,1-4.45-.67,10,10,0,0,1-3.67-2.07,9.84,9.84,0,0,1-2.52-3.6,13,13,0,0,1-1-5.19V175.26h6.06v17.85a9.68,9.68,0,0,0,.61,3.6,6.52,6.52,0,0,0,1.62,2.42,6.2,6.2,0,0,0,2.32,1.34,9.21,9.21,0,0,0,2.73.41,10.45,10.45,0,0,0,3.5-.57,7.29,7.29,0,0,0,2.83-1.82,8.49,8.49,0,0,0,1.89-3.15,13.9,13.9,0,0,0,.67-4.53V175.26h6.06Z"/><path class="cls-7" d="M674.41,180.23h-8.69v13.7c0,.86,0,1.69.07,2.52a6.24,6.24,0,0,0,.51,2.23,3.72,3.72,0,0,0,1.34,1.6,4.87,4.87,0,0,0,2.66.6,13.34,13.34,0,0,0,2.23-.19,6.63,6.63,0,0,0,2.08-.7v5.22a8.11,8.11,0,0,1-2.79.8,21.8,21.8,0,0,1-2.66.22,12.72,12.72,0,0,1-5.42-.92,6.46,6.46,0,0,1-2.83-2.39,7.37,7.37,0,0,1-1.08-3.28c-.11-1.21-.17-2.43-.17-3.67V180.23h-7v-5h7v-8.47h6.06v8.47h8.69Z"/><path class="cls-7" d="M688.15,192.47a7.19,7.19,0,0,0,.91,3.6,9.07,9.07,0,0,0,2.39,2.77,11.23,11.23,0,0,0,3.44,1.79,13.07,13.07,0,0,0,4,.63,9.4,9.4,0,0,0,4.91-1.24,15.48,15.48,0,0,0,3.84-3.28l4.58,3.31q-5.06,6.18-14.14,6.18a18.43,18.43,0,0,1-6.84-1.21,14.84,14.84,0,0,1-5.18-3.34,14.63,14.63,0,0,1-3.27-5,17,17,0,0,1-1.14-6.27,15.71,15.71,0,0,1,1.24-6.28,15.47,15.47,0,0,1,3.44-5,15.71,15.71,0,0,1,5.22-3.35,17.57,17.57,0,0,1,6.6-1.21,16.57,16.57,0,0,1,7.17,1.4,13.89,13.89,0,0,1,7.54,8.76,20.24,20.24,0,0,1,.84,5.77v2Zm19.13-4.59a11.7,11.7,0,0,0-.64-3.5,7.61,7.61,0,0,0-1.72-2.78,7.84,7.84,0,0,0-2.86-1.84,10.9,10.9,0,0,0-4-.67,10.12,10.12,0,0,0-7.2,2.86,9.56,9.56,0,0,0-2,2.84,7.47,7.47,0,0,0-.71,3.09Z"/></g></g></svg>