<?xml version="1.0" encoding="UTF-8" standalone="no"?>
<svg
   xmlns:dc="http://purl.org/dc/elements/1.1/"
   xmlns:cc="http://creativecommons.org/ns#"
   xmlns:rdf="http://www.w3.org/1999/02/22-rdf-syntax-ns#"
   xmlns:svg="http://www.w3.org/2000/svg"
   xmlns="http://www.w3.org/2000/svg"
   xmlns:sodipodi="http://sodipodi.sourceforge.net/DTD/sodipodi-0.dtd"
   xmlns:inkscape="http://www.inkscape.org/namespaces/inkscape"
   viewBox="0 0 1231.08 430.11"
   version="1.1"
   id="svg32"
   sodipodi:docname="logo-chouette.svg"
   inkscape:version="0.92.4 (33fec40, 2019-01-16)">
  <metadata
     id="metadata38">
    <rdf:RDF>
      <cc:Work
         rdf:about="">
        <dc:format>image/svg+xml</dc:format>
        <dc:type
           rdf:resource="http://purl.org/dc/dcmitype/StillImage" />
      </cc:Work>
    </rdf:RDF>
  </metadata>
  <defs
     id="defs36" />
  <sodipodi:namedview
     pagecolor="#ffffff"
     bordercolor="#666666"
     borderopacity="1"
     objecttolerance="10"
     gridtolerance="10"
     guidetolerance="10"
     inkscape:pageopacity="0"
     inkscape:pageshadow="2"
     inkscape:window-width="1920"
     inkscape:window-height="1020"
     id="namedview34"
     showgrid="false"
     inkscape:zoom="0.36228354"
     inkscape:cx="-383.67738"
     inkscape:cy="215.05499"
     inkscape:window-x="730"
     inkscape:window-y="1073"
     inkscape:window-maximized="1"
     inkscape:current-layer="svg32" />
  <title
     id="title2">logo-chouette</title>
  <g
     id="Calque_2"
     data-name="Calque 2"
     style="fill:#74cdad;fill-opacity:1">
    <g
       id="Calque_1-2"
       data-name="Calque 1"
       style="fill:#74cdad;fill-opacity:1">
      <path
         d="M358.05,147.67A180.53,180.53,0,0,0,180.53,0C87.05,0,10,71.42.92,162.56a91.88,91.88,0,0,0-.92,13v8H.06c0,.83,0,1.66.06,2.49.07,2.06.16,4.13.29,6.18l.06.76c.07,1,.15,2.09.24,3.13.05.6.12,1.2.17,1.8s.13,1.39.21,2.08c0,.37.09.74.13,1.12.11.91.21,1.83.33,2.75.05.33.1.66.14,1,.13,1,.26,1.91.41,2.86.07.45.15.9.22,1.35.13.83.26,1.66.41,2.48.06.35.13.69.19,1,.17.93.34,1.87.52,2.8l.12.55c.21,1.09.44,2.17.67,3.25.06.24.12.48.17.72.23,1,.46,2,.71,3.06.07.29.14.58.22.87.23,1,.47,1.92.73,2.88.08.32.17.63.26.94.25.94.5,1.87.77,2.8.07.23.14.45.2.67.3,1,.6,2,.92,3,0,.18.12.36.17.55.33,1,.67,2.09,1,3.13l.24.72c.34,1,.68,2,1,2.94.08.25.18.49.27.73.35,1,.71,1.94,1.07,2.91.1.23.19.47.29.71.37,1,.75,1.93,1.14,2.89l.28.67c.4,1,.81,1.94,1.22,2.9.1.22.2.43.29.65.42,1,.85,1.93,1.29,2.89.11.24.23.49.35.73.43.93.86,1.86,1.3,2.77.1.2.21.4.3.6q.71,1.44,1.44,2.88c.08.17.18.34.27.51.5,1,1,1.95,1.53,2.92l.39.7c.49.9,1,1.8,1.49,2.7l.32.55c.54.94,1.08,1.87,1.63,2.8l.34.56c.56.93,1.12,1.85,1.69,2.76L28,277c.55.88,1.11,1.76,1.69,2.63l.44.66c.57.86,1.14,1.72,1.73,2.58l.38.54c.62.89,1.23,1.77,1.86,2.64l.36.49c.65.89,1.3,1.77,2,2.65.12.17.25.33.38.5.66.87,1.33,1.74,2,2.6.14.16.27.33.4.49l2,2.52C59,317.46,100.36,357.67,164.07,414.79c2.48,2.22,4.44,4,4.85,4.36l11.61,11,11.61-11c2.61-2.46,53.14-51.44,95.08-92.1a8,8,0,1,0-11.14-11.49c-59.23,57.43-92.94,90.09-94.92,92l-.63.59-.63-.59c-.53-.51-2-1.79-5.15-4.65C111.64,346.3,70.9,306.71,53.66,285.22l-.07-.09a164.75,164.75,0,0,1-37.41-97.49Q16,184.07,16,180.5q0-8.08.77-16A76.66,76.66,0,0,1,39.15,120.8,78.49,78.49,0,0,1,94.5,98.06a77.59,77.59,0,0,1,77.5,77.5v3.05l-17.69,30.55-2.47,4.17,28.92,49.94,28.39-50.08-20.5-35.3a7.82,7.82,0,0,0,.35-2.33,77.59,77.59,0,0,1,77.5-77.5c27.13,0,53.55,13.77,67.37,35.1a119.56,119.56,0,0,1,8.57,18,8,8,0,0,0,15.61-3.46Zm-177.43,83.4-10.25-17.72,10.17-17.56,10.16,17.5Zm-.12-92.19A93.9,93.9,0,0,0,35.72,102.52a164.56,164.56,0,0,1,288.79-1.69,100.46,100.46,0,0,0-58-18.77A93.64,93.64,0,0,0,180.5,138.88Z"
         id="path4"
         style="fill:#74cdad;fill-opacity:1" />
      <path
         d="M267.19,124.82a50.4,50.4,0,1,0,50.4,50.39A50.39,50.39,0,0,0,267.19,124.82Zm0,86a35.59,35.59,0,1,1,35.59-35.59A35.58,35.58,0,0,1,267.19,210.8Z"
         id="path6"
         style="fill:#74cdad;fill-opacity:1" />
      <path
         d="M267.19,156.39A18.83,18.83,0,1,0,286,175.21,18.83,18.83,0,0,0,267.19,156.39Z"
         id="path8"
         style="fill:#74cdad;fill-opacity:1" />
      <path
         d="M43.19,175.21a50.4,50.4,0,1,0,50.4-50.39A50.4,50.4,0,0,0,43.19,175.21Zm86,0a35.59,35.59,0,1,1-35.58-35.58A35.58,35.58,0,0,1,129.17,175.21Z"
         id="path10"
         style="fill:#74cdad;fill-opacity:1" />
      <path
         d="M74.76,175.21a18.83,18.83,0,1,0,18.83-18.82A18.83,18.83,0,0,0,74.76,175.21Z"
         id="path12"
         style="fill:#74cdad;fill-opacity:1" />
      <path
         d="M344.94,265.27c0-28.88,21.39-49.36,51.19-49.36,17.37,0,31.81,7.13,39.49,20.66l-13.34,8.59c-6.22-9.5-15.73-13.89-26.33-13.89-19,0-33.27,13.34-33.27,34,0,21,14.26,34.19,33.27,34.19,10.6,0,20.11-4.39,26.33-13.89L435.62,294c-7.68,13.52-22.12,20.84-39.49,20.84C366.33,314.82,344.94,294.16,344.94,265.27Z"
         id="path14"
         style="fill:#74cdad;fill-opacity:1" />
      <path
         d="M558.11,258v55.76H540.56V260c0-19-9.5-28.33-26.14-28.33-18.65,0-30.71,11.15-30.71,32.17v49.91H466.16V178.07h17.55v52.47c7.31-9.33,19.38-14.63,34.18-14.63C541.48,215.91,558.11,229.44,558.11,258Z"
         id="path16"
         style="fill:#74cdad;fill-opacity:1" />
      <path
         d="M591.39,265.27c0-28.88,21.39-49.36,50.46-49.36s50.27,20.48,50.27,49.36-21.21,49.55-50.27,49.55S591.39,294.16,591.39,265.27Zm83,0c0-20.66-13.9-34-32.54-34s-32.73,13.34-32.73,34,14.08,34.19,32.73,34.19S674.39,285.93,674.39,265.27Z"
         id="path18"
         style="fill:#74cdad;fill-opacity:1" />
      <path
         d="M815.89,216.83v96.89H799.26V299.09c-7.13,10.06-19.2,15.73-32.91,15.73-25.05,0-41.68-13.71-41.68-42.23V216.83h17.55v53.74c0,19,9.5,28.52,26.14,28.52,18.28,0,30-11.33,30-32.17V216.83Z"
         id="path20"
         style="fill:#74cdad;fill-opacity:1" />
      <path
         d="M945.69,271.12H867.08c2.2,17,15.91,28.34,35.1,28.34,11.34,0,20.84-3.84,28-11.7l9.69,11.33c-8.77,10.24-22.12,15.73-38.21,15.73-31.26,0-52.1-20.66-52.1-49.55,0-28.7,20.66-49.36,48.63-49.36s47.9,20.11,47.9,49.91C946.06,267.28,945.88,269.48,945.69,271.12Zm-78.61-12.61h62.16c-1.83-16.27-14.08-27.79-31.08-27.79C881.34,230.72,868.91,242.06,867.08,258.51Z"
         id="path22"
         style="fill:#74cdad;fill-opacity:1" />
      <path
         d="M1034,308.05c-5.3,4.57-13.35,6.77-21.21,6.77-19.56,0-30.71-10.79-30.71-30.35v-53.2H965.62V216.83h16.46V195.62h17.55v21.21h27.79v14.44H999.63v52.47c0,10.42,5.48,16.27,15.17,16.27a22.11,22.11,0,0,0,13.71-4.57Z"
         id="path24"
         style="fill:#74cdad;fill-opacity:1" />
      <path
         d="M1116.45,308.05c-5.3,4.57-13.35,6.77-21.21,6.77-19.56,0-30.71-10.79-30.71-30.35v-53.2h-16.45V216.83h16.45V195.62h17.55v21.21h27.79v14.44h-27.79v52.47c0,10.42,5.49,16.27,15.17,16.27a22.16,22.16,0,0,0,13.72-4.57Z"
         id="path26"
         style="fill:#74cdad;fill-opacity:1" />
      <path
         d="M1230.71,271.12H1152.1c2.2,17,15.91,28.34,35.1,28.34,11.34,0,20.84-3.84,28-11.7l9.69,11.33c-8.77,10.24-22.12,15.73-38.21,15.73-31.26,0-52.1-20.66-52.1-49.55,0-28.7,20.66-49.36,48.63-49.36s47.9,20.11,47.9,49.91C1231.08,267.28,1230.9,269.48,1230.71,271.12Zm-78.61-12.61h62.16c-1.83-16.27-14.08-27.79-31.08-27.79C1166.36,230.72,1153.93,242.06,1152.1,258.51Z"
         id="path28"
         style="fill:#74cdad;fill-opacity:1" />
    </g>
  </g>
</svg>
