<svg fill="none" height="214" viewBox="0 0 696 214" width="696" xmlns="http://www.w3.org/2000/svg" xmlns:xlink="http://www.w3.org/1999/xlink"><mask id="a" height="139" maskUnits="userSpaceOnUse" width="108" x="101" y="34"><path clip-rule="evenodd" d="m101.852 34.6238h106.925v138.2922h-106.925z" fill="#fff" fill-rule="evenodd"/></mask><mask id="b" height="31" maskUnits="userSpaceOnUse" width="21" x="368" y="152"><path clip-rule="evenodd" d="m368.842 152.241h19.559v30.073h-19.559z" fill="#fff" fill-rule="evenodd"/></mask><rect fill="#fff" height="213.883" rx="106.941" width="695.968"/><path d="m101.852 33.9521h481.599v148.443h-481.599z" fill="#fff"/><path clip-rule="evenodd" d="m138.679 74.9303c.004.3351-.018.6696-.067 1.0008-.533 4.4795-4.595 7.6787-9.074 7.1467-3.748-.4453-6.702-3.4001-7.147-7.1467-.05-.3244-.072-.6522-.067-.9807-.13-4.5164 3.427-8.2825 7.943-8.4122 4.517-.1296 8.283 3.427 8.412 7.9434.005.1558.005.3123 0 .4688z" fill="#5b4072" fill-rule="evenodd"/><path clip-rule="evenodd" d="m172.489 77.1333c-.221-.7133-.329-1.4562-.323-2.2031 0-4.5185 3.663-8.1812 8.181-8.1812 4.519 0 8.182 3.6627 8.182 8.1812.01 1.1257-.219 2.2407-.672 3.2711-1.785 4.1308-6.58 6.0331-10.711 4.2484-2.267-.9793-3.968-2.9353-4.624-5.3164z" fill="#5b4072" fill-rule="evenodd"/><g mask="url(#a)"><path clip-rule="evenodd" d="m202.792 79.1551c-2.606 24.1809-23.61 37.6149-45.131 38.4939-.752.054-1.484.068-2.237.068h-.255c-1.115 0-2.237-.047-3.358-.115-14.939-.933-29.474-7.905-37.615-20.3046-3.775-5.7624-6.017-12.3926-6.515-19.264 0-.1679 0-.3291-.054-.497-.078-.7725-.117-1.5476-.114-2.3241-.244-13.1973 10.255-24.094 23.452-24.3385 13.197-.2452 24.094 10.2553 24.338 23.4519l-1.148 2.0151-4.964 8.564 6.166 10.6596v-.188l6.045-10.5388-4.876-8.4364-1.169-2.015v-.0605c.44-13.1879 11.487-23.5224 24.675-23.0825 12.913.4299 23.145 11.0486 23.096 23.9691-.01 1.3212-.123 2.6391-.336 3.9428m5.985 8.3357c-.331-29.5266-24.535-53.1949-54.062-52.8637-29.06.3251-52.538 23.8039-52.863 52.8637 0 1.7061 0 3.392.12 5.0645 2.721 27.8007 14.569 47.8847 26.485 61.0297s23.872 19.331 26.868 19.331c.115-.013.229-.042.335-.087-2.646-3.305-3.929-7.55-4.03-12.292.632.483 1.25.947 1.854 1.383.605.437 1.202.853 1.787 1.256 1.765 1.224 3.6 2.346 5.494 3.359.47.228.907.463 1.344.672.617.295 1.202.55 1.719.752 2.808-1.861 5.212-3.547 5.212-3.547 1.31-.782 2.556-1.664 3.728-2.639.081-.068.148-.135.215-.202.249-.215.517-.43.773-.672 14.82-13.237 25.627-30.367 31.193-49.442 1.736-5.97 2.938-12.0814 3.593-18.2636 0-.1007 0-.2015.047-.2821.004-.1128.015-.225.034-.3358.067-1.6927.154-3.3786.154-5.0847" fill="#5b4072" fill-rule="evenodd"/></g><g clip-rule="evenodd" fill-rule="evenodd"><path d="m187.824 78.2013c-.386.9048-.935 1.7309-1.618 2.4382-3.134 3.2335-8.297 3.3141-11.531.18-1.044-1.0115-1.798-2.2844-2.185-3.6862-.22-.7133-.329-1.4569-.323-2.2031-.009-3.9428 2.795-7.3321 6.67-8.0602.5-.1008 1.008-.1505 1.518-.1478 4.512.0255 8.152 3.6963 8.141 8.208.011 1.1257-.218 2.2407-.672 3.2711zm-79.663 2.6265v-.0537l.047.2216c-.007-.0537-.027-.1007-.04-.1679zm20.822-13.9376c.502-.1001 1.013-.1491 1.525-.1478 4.515.0114 8.168 3.6734 8.168 8.1879.004.3345-.018.669-.067 1.0008-.533 4.4794-4.595 7.6787-9.075 7.1467-3.747-.4453-6.701-3.4001-7.146-7.1467-.05-.3245-.072-.6529-.068-.9807-.007-3.9401 2.793-7.3268 6.663-8.0602zm50.23-15.5697c-3.118-.0087-6.207.6032-9.087 1.8002-5.197 2.148-9.476 6.0512-12.091 11.029-1.646 3.1482-2.564 6.6256-2.687 10.1761v.047l1.169 2.0151.282.497 4.628 8.0065-3.291 5.6959-2.788 4.8429v.188l-6.159-10.6462 4.964-8.6312 1.148-2.015c-.479-13.1825-11.555-23.4808-24.737-23.0012-2.808.1021-5.575.6985-8.175 1.7625-.143.047-.282.1034-.417.1679-8.777 3.7682-14.463 12.4054-14.454 21.9574-.002.7765.035 1.5516.114 2.324l.054.4971c.497 6.8707 2.74 13.5016 6.515 19.264 8.154 12.3995 22.689 19.3715 37.614 20.3055 1.102.067 2.224.114 3.359.114h.255c.752 0 1.484 0 2.237-.068 8.868-.324 17.513-2.864 25.148-7.389 10.592-6.434 18.444-16.9121 19.982-31.0779.207-1.3044.313-2.6223.316-3.9428.019-13.1913-10.66-23.9006-23.852-23.9188z" fill="#fff"/><path d="m138.614 75.9311c-.532 4.4795-4.595 7.6794-9.075 7.1467-3.747-.4453-6.701-3.3994-7.146-7.1467 4.708-.0873 10.256-.0873 16.221 0" fill="#fff"/><path d="m161.436 84.9051-6.045 10.5387v.1881l-6.2-10.6597 4.964-8.6311h1.102.067c.383 0 .766 0 1.169.0335z" fill="#fff"/><path d="m187.827 78.2015c-1.785 4.1309-6.58 6.0324-10.711 4.2484-2.268-.9799-3.968-2.9352-4.624-5.3164 5.622.3157 10.868.665 15.335 1.068" fill="#fff"/><path d="m138.679 74.9303c.004.3351-.018.6696-.067 1.0008-.533 4.4795-4.595 7.6787-9.074 7.1467-3.748-.4453-6.702-3.4001-7.147-7.1467-.05-.3244-.072-.6522-.067-.9807-.13-4.5164 3.427-8.2825 7.943-8.4122 4.517-.1296 8.283 3.427 8.412 7.9434.005.1558.005.3123 0 .4688z" fill="#fff"/><path d="m156.526 76.4013 4.91 8.5036-6.045 10.5387v.1881l-6.2-10.6597 4.964-8.6311 1.149-2.0151v.0605.806 1.1553h.067v-1.1553-.8665.047z" fill="#fff"/><path d="m188.497 74.9302c.011 1.1258-.218 2.2408-.672 3.2711-1.784 4.1309-6.58 6.0331-10.71 4.2485-2.268-.98-3.969-2.9353-4.624-5.3164-.221-.7134-.329-1.4569-.323-2.2032-.003-4.5184 3.657-8.1838 8.175-8.1872 4.518-.0033 8.184 3.656 8.188 8.1745v.0127z" fill="#fff"/><path d="m161.436 84.905-6.079 10.5387-.033.0538-6.119-10.5589-.014-.0336 4.964-8.5707 1.149-1.9882.02-.0336.013.0134v.0202l.02.0134 1.169 2.0419z" fill="#ff9b0d"/><path d="m138.679 74.9303c.004.3351-.018.6696-.067 1.0008-.533 4.4795-4.595 7.6787-9.074 7.1467-3.748-.4453-6.702-3.4001-7.147-7.1467-.05-.3244-.072-.6522-.067-.9807-.13-4.5164 3.427-8.2825 7.943-8.4122 4.517-.1296 8.283 3.427 8.412 7.9434.005.1558.005.3123 0 .4688z" fill="#15130e"/><path d="m135.785 71.7464c-.011 1.1614-.961 2.0937-2.123 2.0823-1.161-.0115-2.093-.9612-2.082-2.1226.012-1.1559.953-2.0855 2.109-2.0822 1.161.004 2.099.9478 2.096 2.1091z" fill="#f5f5f6"/><path d="m188.497 74.9302c.011 1.1258-.218 2.2408-.672 3.2711-1.784 4.1309-6.58 6.0331-10.71 4.2485-2.268-.98-3.969-2.9353-4.624-5.3164-.221-.7134-.329-1.4569-.323-2.2032-.003-4.5184 3.657-8.1838 8.175-8.1872 4.518-.0033 8.184 3.656 8.188 8.1745v.0127z" fill="#15130e"/><path d="m185.812 71.7465c-.015 1.1573-.965 2.0835-2.123 2.0688-1.157-.0148-2.083-.9653-2.068-2.1226.015-1.1519.957-2.0755 2.109-2.0688 1.16.0115 2.093.9612 2.082 2.1226" fill="#f5f5f6"/><path d="m166.933 126.362c-10.472 10.478-15.449 23.803-15.295 34.148.081 4.736 1.283 9.041 3.903 12.352.836-.348 1.642-.763 2.411-1.242.168-.095.336-.202.511-.309.356-.209.732-.431 1.121-.672l.585-.363 1.927-1.243 1.115-.732h.034c.195-.127.376-.261.571-.375l5.111-3.359h.041c1.304-.818 2.545-1.732 3.714-2.734l.047-.04.208-.188c.256-.222.518-.45.766-.672 14.828-13.231 25.638-30.363 31.2-49.443-10.895-1.974-26.162 3.063-37.97 14.872" fill="#08b4c1"/><path d="m261.712 116.837c-2.553.872-5.23 1.326-7.926 1.343-4.157.093-8.278-.8-12.024-2.606-3.377-1.65-6.184-4.271-8.06-7.53-1.973-3.526-2.969-7.513-2.888-11.5528-.09-4.0114.948-7.9676 2.996-11.4187 1.927-3.206 4.699-5.8208 8.013-7.5565 3.311-1.7497 7.002-2.6585 10.747-2.6458 6.484 0 11.84 1.7417 16.067 5.2251l-5.434 7.1132c-1.323-1.025-2.783-1.8573-4.339-2.4719-1.676-.6804-3.471-1.0229-5.28-1.0075-3.199-.0396-6.262 1.2957-8.409 3.6674-2.306 2.4564-3.544 5.7275-3.439 9.0947-.078 3.4067 1.248 6.6958 3.667 9.0948 2.47 2.438 5.835 3.75 9.303 3.627 2.962.092 5.86-.88 8.168-2.741l5.46 6.811c-1.974 1.576-4.218 2.78-6.622 3.554" fill="#5b4072"/><path d="m311.579 77.5228c2.547 2.2502 3.993 5.4944 3.963 8.8932l.054 30.555h-10.895l-.054-26.6593c-.024-1.8572-.699-3.6466-1.907-5.0578-1.138-1.2265-2.841-1.8713-5.112-1.9344-3.372 0-6.142 1.4643-8.308 4.3928-2.168 2.9286-3.247 6.596-3.238 11.0022l.034 18.2975h-10.902l-.148-59.7472h10.707l.081 25.5912c1.552-2.6619 3.781-4.8657 6.461-6.3877 2.964-1.643 6.311-2.4658 9.699-2.3845 3.51-.1115 6.93 1.1183 9.565 3.439" fill="#5b4072"/><path d="m337.886 105.304c4.393 4.715 11.774 4.977 16.49.584.202-.188.397-.382.585-.584 2.278-2.57 3.482-5.9175 3.358-9.3498.12-3.4477-1.082-6.8115-3.358-9.4036-2.181-2.4516-5.338-3.8071-8.618-3.701-3.256-.047-6.36 1.3709-8.457 3.8622-2.266 2.5605-3.478 5.8847-3.392 9.3029-.104 3.4168 1.111 6.7433 3.392 9.2893m-11.471-20.567c1.95-3.353 4.792-6.1016 8.208-7.9393 7.493-3.8414 16.374-3.8615 23.885-.0537 3.376 1.8108 6.17 4.5399 8.06 7.8721 1.902 3.4243 2.877 7.2865 2.828 11.2038.067 3.9287-.899 7.8061-2.801 11.2441-1.875 3.346-4.651 6.099-8.013 7.946-3.678 2.016-7.817 3.042-12.01 2.975-4.116.063-8.187-.858-11.875-2.687-3.433-1.707-6.296-4.374-8.242-7.677-2.043-3.56-3.077-7.61-2.989-11.7138-.043-3.9213.976-7.7808 2.949-11.1702" fill="#5b4072"/><path d="m416.663 75.6155.073 41.1605h-9.827l-.672-7.388c-1.417 2.787-3.609 5.105-6.313 6.676-2.89 1.687-6.186 2.551-9.531 2.499-3.462.122-6.835-1.109-9.404-3.432-2.498-2.28-3.904-5.518-3.862-8.9l-.074-30.5618h10.935l.047 26.6658c.211 4.541 2.449 6.837 6.717 6.892 3.175 0 5.817-1.465 7.926-4.393 2.109-2.929 3.148-6.6049 3.116-11.0293l-.033-18.1355z" fill="#5b4072"/><path d="m438.656 85.8853c-2.172 2.4047-3.253 5.5213-3.244 9.3499-.011.5528.023 1.1049.101 1.6524l21.588-7.7312c-.796-1.9405-2.071-3.6465-3.708-4.957-1.815-1.3461-4.036-2.0285-6.294-1.9345-3.211-.1014-6.302 1.2245-8.443 3.6204m18.572 19.3377 4.978 8.061c-2.223 1.374-4.605 2.473-7.094 3.271-2.351.789-4.813 1.204-7.294 1.229-4.276.119-8.513-.842-12.318-2.794-3.357-1.759-6.134-4.45-7.994-7.752-1.912-3.497-2.875-7.4332-2.794-11.4183-.04-3.9187 1.031-7.7688 3.089-11.103 2.065-3.3786 4.979-6.1574 8.45-8.0602 3.57-1.9849 7.591-3.0146 11.675-2.989 5.575 0 10.216 1.6301 13.923 4.8898 3.708 3.2597 6.18 7.8944 7.416 13.9039l-31.704 10.7468c1.083 1.667 2.599 3.009 4.386 3.883 1.881.918 3.952 1.379 6.045 1.343 3.046 0 6.124-1.07 9.236-3.211" fill="#5b4072"/><path d="m490.941 57.3723.034 18.0952h10.706v8.564h-10.699l.059 32.5965h-10.894l-.067-32.6032h-7.1v-8.564h7.107l-.075-18.0683z" fill="#5b4072"/><path d="m524.557 57.3051v18.0952h10.706v8.564h-10.699l.06 32.5967h-10.895l-.067-32.6034h-7.1v-8.5573h7.107v-18.0952z" fill="#5b4072"/><path d="m552.731 85.6637c-2.176 2.4047-3.258 5.5213-3.244 9.3499-.011.5528.023 1.1049.101 1.6523l21.588-7.7311c-.798-1.9391-2.073-3.6439-3.708-4.957-1.824-1.3535-4.058-2.0366-6.327-1.9345-3.201-.096-6.28 1.2292-8.41 3.6204m18.571 19.3243 4.977 8.06c-2.222 1.377-4.605 2.478-7.093 3.278-2.355.787-4.819 1.202-7.301 1.229-4.274.118-8.509-.846-12.312-2.801-3.361-1.761-6.14-4.458-8-7.764-1.898-3.488-2.86-7.4082-2.794-11.3786-.038-3.9193 1.035-7.7687 3.096-11.103 2.063-3.3799 4.977-6.1593 8.45-8.0602 3.569-1.9848 7.591-3.0145 11.674-2.989 5.575 0 10.216 1.6302 13.924 4.8899 3.707 3.2597 6.181 7.8762 7.422 13.8501l-31.704 10.7468c1.082 1.669 2.599 3.011 4.386 3.883 1.881.918 3.953 1.379 6.046 1.343 3.058.027 6.135-1.034 9.229-3.184" fill="#5b4072"/><path d="m234.698 166.427c.725 1.227 1.785 2.223 3.056 2.869 1.329.647 2.794.969 4.272.94.952.007 1.9-.135 2.808-.423.826-.262 1.6-.668 2.283-1.203.642-.502 1.166-1.136 1.538-1.86.386-.764.579-1.61.565-2.465.047-.917-.188-1.827-.672-2.606-.486-.7-1.128-1.28-1.874-1.693-.844-.466-1.733-.847-2.653-1.135-.974-.316-2.015-.625-3.029-.941-1.015-.315-2.049-.671-3.03-1.068-.955-.386-1.847-.914-2.646-1.565-.799-.654-1.44-1.481-1.874-2.418-.503-1.129-.744-2.357-.706-3.593-.022-1.242.266-2.471.84-3.574.547-1.029 1.318-1.922 2.257-2.613.992-.719 2.104-1.256 3.284-1.585 1.265-.358 2.575-.537 3.89-.53 1.661-.018 3.311.279 4.863.873 1.529.614 2.865 1.627 3.868 2.935l-2.579 1.753c-.693-.947-1.6-1.718-2.646-2.249-1.127-.532-2.362-.794-3.607-.767-.932-.004-1.861.118-2.761.363-.819.214-1.594.576-2.284 1.068-.648.468-1.183 1.077-1.565 1.78-.405.778-.606 1.648-.584 2.526-.085 1.28.357 2.539 1.223 3.486.869.851 1.908 1.507 3.049 1.927 1.301.497 2.631.912 3.983 1.243 1.373.334 2.706.814 3.976 1.431 1.203.582 2.25 1.44 3.057 2.505.882 1.302 1.312 2.857 1.222 4.426.023 1.261-.256 2.51-.813 3.641-.528 1.044-1.277 1.961-2.196 2.687-.949.747-2.032 1.308-3.191 1.652-1.216.372-2.481.56-3.754.558-1.995.022-3.976-.336-5.837-1.055-1.821-.727-3.402-1.949-4.568-3.526z" fill="#5b4072"/><path d="m269.944 162.109c-1.112-.004-2.223.066-3.325.208-.991.126-1.963.371-2.895.732-.781.284-1.486.744-2.062 1.343-.518.589-.791 1.353-.766 2.136-.01.565.139 1.121.43 1.606.278.464.656.859 1.108 1.154.465.305.975.531 1.512.672.552.159 1.125.237 1.699.236 1.219.043 2.435-.161 3.573-.598.855-.342 1.62-.875 2.237-1.558.555-.628.951-1.379 1.155-2.19.212-.803.317-1.628.316-2.458v-1.344zm5.426 1.625v2.606c0 .765.034 1.485.06 2.143.027.658.074 1.269.115 1.84.04.571.114 1.142.208 1.713h-2.539c-.185-1.06-.275-2.134-.269-3.211h-.087c-.695 1.194-1.706 2.173-2.922 2.828-1.377.644-2.888.949-4.406.894-.905 0-1.807-.105-2.687-.316-.839-.2-1.635-.547-2.351-1.028-.693-.475-1.273-1.096-1.699-1.82-.461-.819-.693-1.747-.672-2.687-.072-1.311.365-2.599 1.223-3.594.825-.905 1.857-1.596 3.009-2.015 1.221-.451 2.497-.741 3.795-.859 1.343-.128 2.525-.188 3.553-.188h3.164v-1.202c0-1.713-.558-2.936-1.673-3.681-1.261-.779-2.724-1.165-4.205-1.109-2.322-.033-4.581.755-6.381 2.224l-1.585-1.753c1.072-.955 2.34-1.663 3.715-2.076 1.371-.458 2.806-.698 4.251-.712 2.535 0 4.55.564 6.045 1.693 1.496 1.128 2.251 2.948 2.264 5.461z" fill="#5b4072"/><path d="m294.325 162.109c-1.112-.004-2.223.066-3.325.208-.991.126-1.963.371-2.895.732-.781.284-1.487.744-2.062 1.343-.517.589-.791 1.353-.766 2.136-.01.565.139 1.121.43 1.606.279.462.658.857 1.108 1.154.466.306.979.532 1.518.672.55.159 1.121.238 1.693.236 1.22.043 2.435-.161 3.573-.598.856-.344 1.622-.877 2.244-1.558.551-.629.944-1.38 1.148-2.19.214-.802.322-1.628.323-2.458v-1.344zm5.426 1.625v2.606c0 .765.033 1.485.067 2.143s.067 1.269.107 1.84c.041.571.115 1.142.209 1.713h-2.533c-.19-1.059-.282-2.134-.275-3.211h-.087c-.695 1.194-1.706 2.173-2.922 2.828-1.377.644-2.888.949-4.406.894-.905 0-1.807-.105-2.687-.316-.838-.2-1.635-.547-2.351-1.028-.693-.475-1.273-1.096-1.699-1.82-.461-.819-.693-1.747-.672-2.687-.073-1.311.366-2.599 1.222-3.594.826-.905 1.858-1.596 3.01-2.015 1.222-.451 2.498-.74 3.795-.859 1.343-.128 2.525-.188 3.553-.188h3.231v-1.202c0-1.713-.565-2.936-1.68-3.681-1.26-.779-2.723-1.165-4.204-1.109-2.322-.033-4.582.755-6.381 2.224l-1.586-1.753c1.072-.955 2.34-1.663 3.715-2.076 1.371-.458 2.806-.698 4.252-.712 2.53 0 4.545.564 6.045 1.693 1.5 1.128 2.255 2.948 2.263 5.461z" fill="#5b4072"/><path d="m309.147 166.831c.668 1.147 1.652 2.08 2.834 2.686 1.236.599 2.597.898 3.97.874.884.008 1.765-.126 2.606-.397.77-.239 1.489-.616 2.123-1.115.594-.466 1.08-1.055 1.424-1.727.359-.706.541-1.489.53-2.283.027-.857-.207-1.703-.671-2.425-.452-.653-1.049-1.192-1.747-1.571-.782-.434-1.606-.787-2.458-1.055-.907-.289-1.847-.578-2.814-.873-.955-.284-1.894-.616-2.815-.995-.887-.357-1.716-.846-2.458-1.45-.74-.609-1.335-1.376-1.74-2.244-.476-1.054-.705-2.202-.672-3.358-.023-1.154.245-2.296.78-3.318.507-.956 1.223-1.784 2.095-2.425.921-.669 1.954-1.167 3.05-1.471 1.173-.334 2.387-.501 3.607-.497 1.544-.013 3.077.262 4.52.813 1.42.571 2.661 1.513 3.594 2.726l-2.398 1.626c-.643-.879-1.486-1.593-2.459-2.082-1.051-.482-2.201-.712-3.358-.671-.864-.004-1.725.109-2.559.335-.73.193-1.42.508-2.042.933-.603.435-1.098 1-1.451 1.653-.39.731-.584 1.55-.564 2.378-.08 1.189.33 2.359 1.135 3.238.807.79 1.773 1.4 2.835 1.786 1.205.465 2.438.85 3.694 1.155 1.275.314 2.515.765 3.694 1.343 1.118.542 2.092 1.341 2.841 2.331.818 1.21 1.214 2.654 1.129 4.111.02 1.164-.237 2.316-.753 3.358-.485.965-1.172 1.813-2.015 2.486-.882.687-1.884 1.204-2.955 1.525-1.131.351-2.309.527-3.493.523-1.85.019-3.687-.313-5.414-.98-1.692-.676-3.163-1.811-4.245-3.278z" fill="#5b4072"/><path d="m345.088 162.149c-.008 1.084.222 2.157.672 3.144.445.97 1.077 1.845 1.861 2.572.805.742 1.741 1.33 2.76 1.733 1.093.431 2.258.648 3.432.638 1.178.016 2.346-.2 3.439-.638.981-.4 1.873-.988 2.627-1.733.724-.733 1.287-1.61 1.652-2.572.752-2.031.752-4.264 0-6.294-.366-.961-.929-1.835-1.652-2.566-.754-.745-1.646-1.334-2.627-1.733-1.092-.441-2.261-.658-3.439-.639-2.29-.024-4.505.823-6.192 2.372-.784.724-1.416 1.596-1.861 2.566-.45.989-.679 2.063-.672 3.15zm-2.443-19.426h2.686v13.004h.088c.419-.68.956-1.28 1.585-1.772.631-.501 1.324-.919 2.062-1.244.745-.329 1.524-.575 2.324-.732.79-.152 1.593-.231 2.398-.234 1.506-.015 3.002.247 4.413.772 1.293.485 2.478 1.22 3.486 2.162.979.929 1.756 2.05 2.284 3.292 1.083 2.678 1.083 5.671 0 8.349-.526 1.245-1.304 2.368-2.284 3.298-1.008.943-2.193 1.678-3.486 2.163-2.181.789-4.534.972-6.811.53-.801-.151-1.581-.394-2.324-.725-.731-.315-1.419-.721-2.049-1.209-.628-.493-1.165-1.093-1.585-1.774h-.087v3.467h-2.687z" fill="#5b4072"/></g><g mask="url(#b)"><path clip-rule="evenodd" d="m377.661 178.155c-.441 1.178-1.173 2.225-2.129 3.043-1.039.784-2.321 1.176-3.621 1.109-.45 0-.898-.037-1.344-.108-.452-.066-.9-.158-1.343-.276l.276-2.398c.39.114.786.222 1.196.323.406.1.823.149 1.242.147.448.008.89-.094 1.289-.295.37-.196.7-.458.975-.773.263-.321.489-.673.672-1.047.194-.389.368-.779.523-1.176l1.901-4.58-8.456-19.883h3.029l6.918 16.651 6.717-16.651h2.895z" fill="#5b4072" fill-rule="evenodd"/></g><path clip-rule="evenodd" d="m420.15 160.221c-.022-.801-.167-1.593-.43-2.351-.248-.697-.641-1.334-1.155-1.867-.543-.546-1.199-.968-1.921-1.236-.86-.316-1.771-.468-2.687-.45-.938-.012-1.868.168-2.734.53-.781.331-1.497.802-2.109 1.391-.559.55-1.013 1.197-1.343 1.907-.306.65-.468 1.358-.477 2.076zm-12.849 3.083c-.012.846.199 1.68.611 2.418.403.723.949 1.356 1.605 1.861.695.531 1.477.938 2.311 1.202.868.281 1.775.424 2.687.424 1.154.028 2.295-.26 3.298-.833.973-.591 1.844-1.335 2.579-2.204l3.076 2.224c-2.266 2.767-5.431 4.151-9.497 4.151-1.569.023-3.128-.253-4.595-.813-1.303-.496-2.489-1.261-3.479-2.243-.956-.957-1.703-2.1-2.196-3.359-.521-1.342-.783-2.772-.773-4.212-.012-1.448.273-2.884.84-4.218 1.097-2.586 3.196-4.616 5.817-5.629 1.411-.553 2.917-.829 4.433-.813 1.655-.047 3.3.274 4.816.942 2.457 1.139 4.302 3.284 5.064 5.883.375 1.258.564 2.564.564 3.876v1.343z" fill="#5b4072" fill-rule="evenodd"/><path clip-rule="evenodd" d="m430.307 151.745h4.03v3.129h.094c.577-1.153 1.523-2.079 2.687-2.633 1.358-.693 2.868-1.039 4.392-1.008 1.005-.003 2.004.149 2.963.45.918.281 1.765.755 2.485 1.391.741.668 1.322 1.494 1.699 2.419.443 1.107.657 2.293.631 3.486v13.057h-4.07v-11.983c.022-.827-.117-1.651-.41-2.425-.231-.613-.596-1.168-1.068-1.625-.45-.41-.984-.715-1.565-.893-.593-.19-1.211-.285-1.833-.282-.801-.009-1.596.123-2.351.389-.72.253-1.371.669-1.901 1.215-.57.609-1 1.333-1.263 2.123-.323.979-.477 2.005-.457 3.036v10.445h-4.063z" fill="#5b4072" fill-rule="evenodd"/><path clip-rule="evenodd" d="m462.084 148.621v10.176h8.484c3.197 0 5.716-1.867 5.716-5.051 0-3.459-2.519-5.125-5.716-5.125zm-4.366-3.621h12.392c5.421 0 10.747 2.311 10.747 8.665 0 4.897-4.076 8.155-8.993 8.43 2.773 2.687 6.045 6.717 9.538 6.717 1.188-.012 2.36-.268 3.446-.753l.463 3.359c-1.435.671-2.998 1.024-4.581 1.034-6.3 0-10.962-8.026-14.327-10.337h-4.326v9.941h-4.366z" fill="#5b4072" fill-rule="evenodd"/><path clip-rule="evenodd" d="m492.827 161.893c-.013.97.156 1.934.497 2.841.306.834.785 1.594 1.404 2.23.631.633 1.386 1.129 2.217 1.459 1.894.706 3.982.706 5.877 0 .829-.333 1.582-.829 2.216-1.459.617-.638 1.095-1.397 1.404-2.23.663-1.838.663-3.85 0-5.689-.309-.832-.787-1.591-1.404-2.23-.632-.629-1.387-1.123-2.216-1.451-1.894-.716-3.984-.716-5.877 0-.832.325-1.587.819-2.217 1.451-.619.638-1.098 1.397-1.404 2.23-.341.91-.51 1.877-.497 2.848m-4.346 0c-.01-1.433.291-2.851.88-4.157.585-1.265 1.408-2.405 2.424-3.358 1.05-.985 2.276-1.763 3.614-2.291 2.884-1.111 6.077-1.111 8.96 0 1.34.53 2.568 1.307 3.621 2.291 1.013.953 1.834 2.094 2.418 3.358 1.182 2.65 1.182 5.679 0 8.328-.575 1.27-1.397 2.411-2.418 3.359-1.056.975-2.283 1.745-3.621 2.27-2.883 1.11-6.076 1.11-8.96 0-1.336-.523-2.562-1.294-3.614-2.27-1.023-.947-1.847-2.088-2.424-3.359-.589-1.311-.889-2.733-.88-4.171" fill="#5b4072" fill-rule="evenodd"/><path clip-rule="evenodd" d="m536.297 172.036h-4.071v-3.123h-.094c-.579 1.15-1.524 2.077-2.686 2.633-1.359.686-2.864 1.03-4.386 1.001-1.014.007-2.023-.144-2.989-.45-.911-.284-1.751-.757-2.465-1.391-.739-.668-1.318-1.495-1.693-2.418-.46-1.104-.689-2.29-.672-3.487v-13.056h4.071v11.989c-.019.824.12 1.645.409 2.418.235.617.608 1.172 1.088 1.625.448.411.98.718 1.559.901.594.182 1.212.276 1.833.274.8.008 1.596-.121 2.351-.382.72-.254 1.372-.672 1.901-1.222.573-.605 1.006-1.327 1.27-2.116.317-.983.469-2.011.45-3.043v-10.444h4.07z" fill="#5b4072" fill-rule="evenodd"/><path clip-rule="evenodd" d="m554.844 155.083h-5.837v9.202c0 .578 0 1.135.047 1.693.02.515.137 1.023.342 1.497.192.438.504.81.9 1.075.545.302 1.165.441 1.787.402.502 0 1.003-.042 1.498-.127.489-.077.96-.237 1.397-.47v3.506c-.588.291-1.222.473-1.874.538-.593.085-1.188.135-1.787.148-1.244.061-2.486-.15-3.64-.618-.777-.339-1.438-.896-1.901-1.606-.413-.667-.662-1.422-.726-2.203-.074-.813-.114-1.633-.114-2.465v-10.572h-4.702v-3.359h4.702v-5.689h4.071v5.689h5.837z" fill="#5b4072" fill-rule="evenodd"/><path clip-rule="evenodd" d="m576.925 160.221c-.023-.801-.168-1.594-.431-2.351-.245-.699-.639-1.336-1.155-1.867-.542-.548-1.198-.97-1.921-1.236-.859-.317-1.77-.469-2.686-.45-1.803-.027-3.543.665-4.836 1.921-.561.548-1.017 1.195-1.344 1.907-.305.65-.468 1.358-.477 2.076zm-12.85 3.083c-.011.846.199 1.68.611 2.418.404.723.95 1.356 1.606 1.861.695.531 1.476.938 2.31 1.202.868.28 1.775.423 2.687.423 1.155.029 2.296-.259 3.298-.832.975-.589 1.846-1.334 2.579-2.204l3.076 2.224c-2.265 2.766-5.43 4.151-9.497 4.151-1.569.023-3.128-.253-4.594-.813-1.304-.496-2.489-1.261-3.48-2.243-.955-.957-1.703-2.1-2.196-3.359-.518-1.343-.778-2.772-.765-4.212-.015-1.448.268-2.884.832-4.218.541-1.261 1.326-2.402 2.311-3.359 1.008-.975 2.199-1.74 3.506-2.25 1.411-.553 2.917-.829 4.433-.812 1.655-.049 3.3.272 4.816.941 2.463 1.131 4.311 3.279 5.064 5.884.375 1.258.565 2.563.565 3.874v1.344z" fill="#5b4072" fill-rule="evenodd"/></svg>