<?xml version="1.0" encoding="UTF-8"?>
<svg width="66px" height="49px" viewBox="0 0 66 49" version="1.1" xmlns="http://www.w3.org/2000/svg" xmlns:xlink="http://www.w3.org/1999/xlink">
    <!-- Generator: Sketch 52.6 (67491) - http://www.bohemiancoding.com/sketch -->
    <title>Group 26</title>
    <desc>Created with Sketch.</desc>
    <g id="Page-1" stroke="none" stroke-width="1" fill="none" fill-rule="evenodd">
        <g id="Artboard" transform="translate(-1184.000000, -721.000000)" fill="#445056" fill-rule="nonzero">
            <g id="Group-5" transform="translate(1184.000000, 705.000000)">
                <g id="Group-6" transform="translate(0.000000, 16.000000)">
                    <g id="Group-7">
                        <g id="Group-20">
                            <g id="Group-26">
                                <path d="M45.7925335,21.2651724 C45.7656207,20.6274556 46.2607751,20.0886669 46.8984919,20.0617541 C47.5362086,20.0348413 48.0749973,20.5299957 48.1019101,21.1677124 L48.3109151,26.1202209 C48.3434706,26.8916448 47.6249441,27.477438 46.8758922,27.2901521 L41.8528564,26.0342395 C41.2336341,25.879415 40.8571653,25.2519261 41.0119898,24.6327037 C41.1668143,24.0134814 41.7943032,23.6370126 42.4135256,23.7918371 L45.9363353,24.6726472 L45.7925335,21.2651724 Z" id="Stroke-251"></path>
                                <path d="M47.910312,21.838735 C47.5455312,22.3625116 46.8252132,22.4914033 46.3014366,22.1266225 C45.7776599,21.7618418 45.6487683,21.0415237 46.0135491,20.5177471 C47.0189858,19.0740737 47.5858295,17.440172 47.5858295,15.8457855 C47.5858295,14.6170171 47.3043578,13.4256912 46.7655115,12.3271369 C46.4844233,11.7540781 46.7211123,11.0616552 47.2941711,10.7805671 C47.8672299,10.4994789 48.5596528,10.7361679 48.840741,11.3092267 C49.5336223,12.7218147 49.8972617,14.2609141 49.8972617,15.8457855 C49.8972617,17.9386312 49.173415,20.0250871 47.910312,21.838735 Z" id="Stroke-255"></path>
                                <path d="M23.6550812,16.5197844 C24.0293723,17.0368078 23.9136649,17.7593609 23.3966416,18.1336519 C22.8796182,18.507943 22.1570651,18.3922356 21.7827741,17.8752123 C20.4681569,16.0592785 19.7138491,13.9667788 19.7138491,11.8650428 C19.7138491,5.74268863 25.2892115,0.84428392 32.0978372,0.84428392 C38.9064629,0.84428392 44.4818252,5.74268863 44.4818252,11.8650428 C44.4818252,17.987397 38.9064629,22.8858017 32.0978372,22.8858017 C30.409113,22.8858017 28.7658498,22.5847762 27.2436036,22.0076824 C26.646769,21.7814184 26.3463622,21.1141651 26.5726262,20.5173305 C26.7988902,19.9204959 27.4661435,19.6200891 28.0629781,19.8463532 C29.3234403,20.3242029 30.6890709,20.5743695 32.0978372,20.5743695 C37.6916803,20.5743695 42.170393,16.6394597 42.170393,11.8650428 C42.170393,7.09062584 37.6916803,3.15571608 32.0978372,3.15571608 C26.5039941,3.15571608 22.0252813,7.09062584 22.0252813,11.8650428 C22.0252813,13.4511313 22.6121483,15.079139 23.6550812,16.5197844 Z" id="Stroke-243"></path>
                                <path d="M27.2381346,19.5351084 C27.8721024,19.4610022 28.4461098,19.9148598 28.520216,20.5488276 C28.5943222,21.1827954 28.1404646,21.7568028 27.5064968,21.830909 L22.5716157,22.4077603 C21.8517051,22.4919125 21.2329039,21.9002804 21.2846698,21.1773191 L21.5571399,17.3720046 C21.602726,16.7353502 22.1557912,16.2561946 22.7924456,16.3017807 C23.4291,16.3473667 23.9082556,16.9004319 23.8626695,17.5370863 L23.6899081,19.9498699 L27.2381346,19.5351084 Z" id="Stroke-245"></path>
                                <path d="M25.9300395,14.3181818 C24.9366352,14.3181818 24.1434783,13.4775086 24.1434783,12.4545455 C24.1434783,11.4315824 24.9366352,10.5909091 25.9300395,10.5909091 C26.9234438,10.5909091 27.7166008,11.4315824 27.7166008,12.4545455 C27.7166008,13.4775086 26.9234438,14.3181818 25.9300395,14.3181818 Z M25.9300395,13.3181818 C26.3577315,13.3181818 26.7166008,12.9378135 26.7166008,12.4545455 C26.7166008,11.9712774 26.3577315,11.5909091 25.9300395,11.5909091 C25.5023475,11.5909091 25.1434783,11.9712774 25.1434783,12.4545455 C25.1434783,12.9378135 25.5023475,13.3181818 25.9300395,13.3181818 Z" id="Oval"></path>
                                <path d="M31.9339921,14.3181818 C30.9405878,14.3181818 30.1474308,13.4775086 30.1474308,12.4545455 C30.1474308,11.4315824 30.9405878,10.5909091 31.9339921,10.5909091 C32.9273964,10.5909091 33.7205534,11.4315824 33.7205534,12.4545455 C33.7205534,13.4775086 32.9273964,14.3181818 31.9339921,14.3181818 Z M31.9339921,13.3181818 C32.3616841,13.3181818 32.7205534,12.9378135 32.7205534,12.4545455 C32.7205534,11.9712774 32.3616841,11.5909091 31.9339921,11.5909091 C31.5063001,11.5909091 31.1474308,11.9712774 31.1474308,12.4545455 C31.1474308,12.9378135 31.5063001,13.3181818 31.9339921,13.3181818 Z" id="Oval"></path>
                                <path d="M37.9379447,14.3181818 C36.9445403,14.3181818 36.1513834,13.4775086 36.1513834,12.4545455 C36.1513834,11.4315824 36.9445403,10.5909091 37.9379447,10.5909091 C38.931349,10.5909091 39.7245059,11.4315824 39.7245059,12.4545455 C39.7245059,13.4775086 38.931349,14.3181818 37.9379447,14.3181818 Z M37.9379447,13.3181818 C38.3656367,13.3181818 38.7245059,12.9378135 38.7245059,12.4545455 C38.7245059,11.9712774 38.3656367,11.5909091 37.9379447,11.5909091 C37.5102527,11.5909091 37.1513834,11.9712774 37.1513834,12.4545455 C37.1513834,12.9378135 37.5102527,13.3181818 37.9379447,13.3181818 Z" id="Oval"></path>
                                <path d="M31.0280581,25.2510195 C30.4777207,24.9276997 30.2936866,24.2194606 30.6170063,23.6691232 C30.9403261,23.1187858 31.6485652,22.9347517 32.1989026,23.2580714 C33.7493692,24.1689609 35.5583708,24.6617721 37.4527101,24.6617721 C38.7981131,24.6617721 40.1022643,24.4136369 41.3061771,23.9393919 C41.9000462,23.7054551 42.5711154,23.9972379 42.8050522,24.591107 C43.038989,25.1849761 42.7472062,25.8560454 42.1533371,26.0899821 C40.6799116,26.6703936 39.0883965,26.9732043 37.4527101,26.9732043 C35.1463868,26.9732043 32.9332184,26.3702892 31.0280581,25.2510195 Z" id="Stroke-253"></path>
                                <path d="M12.1086957,34.5193524 C8.11764778,34.5193524 4.88776218,31.2515796 4.88776218,27.2272727 C4.88776218,23.2029658 8.11764778,19.935193 12.1086957,19.935193 C16.0997435,19.935193 19.3296291,23.2029658 19.3296291,27.2272727 C19.3296291,31.2515796 16.0997435,34.5193524 12.1086957,34.5193524 Z M12.1086957,32.2079203 C14.8171019,32.2079203 17.018197,29.9810059 17.018197,27.2272727 C17.018197,24.4735395 14.8171019,22.2466252 12.1086957,22.2466252 C9.40028938,22.2466252 7.19919434,24.4735395 7.19919434,27.2272727 C7.19919434,29.9810059 9.40028938,32.2079203 12.1086957,32.2079203 Z" id="Oval-2"></path>
                                <path d="M53.8913043,37.2466252 C50.6446403,37.2466252 48.018197,34.5893731 48.018197,31.3181818 C48.018197,28.0469905 50.6446403,25.3897385 53.8913043,25.3897385 C57.1379684,25.3897385 59.7644117,28.0469905 59.7644117,31.3181818 C59.7644117,34.5893731 57.1379684,37.2466252 53.8913043,37.2466252 Z M53.8913043,34.935193 C55.8553268,34.935193 57.4529796,33.3187995 57.4529796,31.3181818 C57.4529796,29.3175642 55.8553268,27.7011706 53.8913043,27.7011706 C51.9272819,27.7011706 50.3296291,29.3175642 50.3296291,31.3181818 C50.3296291,33.3187995 51.9272819,34.935193 53.8913043,34.935193 Z" id="Oval-2-Copy"></path>
                                <path d="M3.10485213,47.3390891 C2.91757837,47.9492821 2.27110386,48.2921259 1.66091088,48.1048521 C1.0507179,47.9175784 0.707874121,47.2711039 0.895147873,46.6609109 C2.71798758,40.7215628 6.84663802,37.6624657 13.0424306,37.6624657 C19.2051329,37.6624657 23.5814439,40.6788375 25.9830724,46.5632876 C26.224262,47.1542483 25.9407165,47.8288394 25.3497558,48.070029 C24.7587952,48.3112185 24.0842041,48.027673 23.8430145,47.4367124 C21.7923012,42.4120716 18.2548703,39.9738979 13.0424306,39.9738979 C7.86308118,39.9738979 4.63011122,42.3693463 3.10485213,47.3390891 Z" id="Path-2"></path>
                                <path d="M46.236401,47.3354377 C46.0511438,47.946246 45.4058053,48.2912233 44.7949971,48.1059662 C44.1841888,47.920709 43.8392115,47.2753705 44.0244686,46.6645623 C45.5501525,41.6342553 49.028783,39.0261021 54.2242012,39.0261021 C59.3866127,39.0261021 63.0647424,41.5914328 65.0718204,46.5677029 C65.3105714,47.159653 65.0242471,47.8330693 64.4322971,48.0718204 C63.840347,48.3105714 63.1669307,48.0242471 62.9281796,47.4322971 C61.2686232,43.3176581 58.4295536,41.3375343 54.2242012,41.3375343 C50.0518553,41.3375343 47.4679749,43.2748357 46.236401,47.3354377 Z" id="Path-2-Copy"></path>
                            </g>
                        </g>
                    </g>
                </g>
            </g>
        </g>
    </g>
</svg>