<svg width="128" height="129" viewBox="0 0 128 129" fill="none" xmlns="http://www.w3.org/2000/svg">
<g clip-path="url(#clip0_1_2)">
<path d="M64 128.5C57.7 126.6 54.8999 121.1 51.2999 116.4C39.0999 100.2 27.5 83.6 19.6 64.7C8.69995 38.7 24.5 9.19998 53.4 1.69998C54.3 1.49998 55.4 1.69998 56 0.599976C61.3 0.599976 66.7 0.599976 72 0.599976C77.6 3.69998 84.1 4.49998 89.6 8.19998C110.2 22 117.1 45.3 106.9 67.8C97.4 88.6 83.9999 106.9 70.0999 124.9C68.6999 126.7 66.6 127.3 64.9 128.5C64.7 128.5 64.4 128.5 64 128.5ZM65 12.6C40.7 11.9 20.6 36.6 30.8 60.3C38.7 78.6 49.9 94.8 61.7999 110.6C64.5999 114.3 66.1 111.1 67.3 109.3C78 94.8 87.8 79.7 96.1 63.5C107.9 40.6 89.6 12.5 65 12.6Z" fill="#F8CB9C"/>
<path d="M63.8 79.5C48.4 79.4 34.9 65.7 35 50.4C35.1 35 48.8 21.5 64.1 21.6C79.5 21.7 93 35.4 92.9 50.7C92.8 66.2 79.2 79.6 63.8 79.5ZM76 48.6C75.7 47.9 75.6 47.4 75.3 47.1C72.1 43.8 68.9 40.4 65.6 37.2C64.2 35.9 62.7 36.9 61.6 38C58.7 40.7 55.9 43.6 53.1 46.4C52.1 47.4 51.6 48.6 52.7 49.9C53.7 51 55.1 50.6 55.7 49.7C61.4 41.6 66.8 41.9 72.2 49.9C72.8 50.7 74 50.8 74.9 50.1C75.5 49.7 75.7 49.1 76 48.6ZM73.2 62.4C74.5 62.5 75.2 62.2 75.6 61.4C76.2 60.3 75.7 59.4 75 58.7C72 55.6 69 52.5 66 49.5C64.9 48.4 63.5 48.4 62.4 49.4C59.1 52.5 55.9 55.6 52.8 58.7C51.9 59.6 51.7 60.8 52.7 61.8C53.7 62.9 54.9 62.4 55.8 61.7C57.5 60.2 59.4 58.7 60.8 56.9C63.2 53.8 65 54.1 67.4 57C69.1 59 70.9 61.3 73.2 62.4Z" fill="#F8CB9C"/>
<path d="M76 48.6C75.7 49.1 75.4 49.7 75 50.1C74.1 50.8 72.8 50.7 72.3 49.9C66.9 41.8 61.5 41.6 55.8 49.7C55.2 50.6 53.8 51 52.8 49.9C51.7 48.6 52.2 47.4 53.2 46.4C56 43.6 58.8 40.7 61.7 38C62.8 37 64.3 35.9 65.7 37.2C69.1 40.4 72.2 43.8 75.4 47.1C75.6 47.4 75.7 48 76 48.6Z" fill="#231D16"/>
<path d="M73.2 62.4C70.9 61.3 69.1 59 67.3 56.9C64.9 54.1 63.1 53.8 60.7 56.8C59.3 58.6 57.4 60.1 55.7 61.6C54.8 62.4 53.7 62.9 52.6 61.7C51.6 60.7 51.8 59.5 52.7 58.6C55.9 55.4 59.1 52.3 62.3 49.3C63.4 48.3 64.8 48.3 65.9 49.4C68.9 52.4 72 55.5 74.9 58.6C75.6 59.3 76.1 60.2 75.5 61.3C75.2 62.2 74.5 62.5 73.2 62.4Z" fill="#231D16"/>
</g>
<defs>
<clipPath id="clip0_1_2">
<rect width="128" height="128.1" fill="white" transform="translate(0 0.5)"/>
</clipPath>
</defs>
</svg>
