<svg width="128" height="129" viewBox="0 0 128 129" fill="none" xmlns="http://www.w3.org/2000/svg">
<g clip-path="url(#clip0_1_12)">
<path d="M64 128.5C57.7 126.6 54.9 121.1 51.3 116.4C39.1 100.2 27.5 83.6 19.6 64.7C8.70001 38.7 24.5 9.19998 53.4 1.69998C54.3 1.49998 55.4 1.69998 56 0.599976C61.3 0.599976 66.7 0.599976 72 0.599976C77.6 3.69998 84.1 4.49998 89.6 8.19998C110.2 22 117.1 45.3 106.9 67.8C97.4 88.6 84 106.9 70.1 124.9C68.7 126.7 66.6 127.3 64.9 128.5C64.7 128.5 64.4 128.5 64 128.5ZM65 12.6C40.7 11.9 20.6 36.6 30.8 60.3C38.7 78.6 49.9 94.8 61.8 110.6C64.6 114.3 66.1 111.1 67.3 109.3C78 94.8 87.8 79.7 96.1 63.5C107.9 40.6 89.6 12.5 65 12.6Z" fill="#F8CB9C"/>
<path d="M93 50.7C92.9 66.1 79.3 79.6 63.9 79.5C48.5 79.4 35 65.8 35.1 50.4C35.2 35 48.8 21.5 64.2 21.6C79.6 21.7 93.1 35.3 93 50.7ZM76.1 40.5C75.7 40 75.4 39.3 74.9 39C73.4 38.1 72.4 39.3 71.4 40.1C68.9 42.3 66.7 46.2 64.1 46.4C61 46.6 59.1 42.2 56.5 39.9C55.3 38.8 54 38 52.6 39.4C51.3 40.7 52.5 41.9 53.2 42.9C61.4 54.3 63.3 54.4 73.1 44.5C73.8 43.8 74.6 43.1 75.2 42.4C75.6 41.9 75.8 41.2 76.1 40.5ZM76.1 52.5C75.7 52 75.4 51.3 74.9 51C73.4 50.1 72.4 51.2 71.4 52.1C68.9 54.3 66.7 58.2 64.1 58.4C61 58.7 59.1 54.2 56.5 51.9C55.3 50.9 54.1 49.9 52.6 51.4C51.3 52.7 52.5 53.9 53.2 54.9C61.3 66.3 63.3 66.5 73.1 56.6C73.8 55.9 74.6 55.2 75.2 54.5C75.6 53.9 75.8 53.3 76.1 52.5Z" fill="#F8CB9C"/>
<path d="M76.1 40.5C75.8 41.2 75.6 41.9 75.2 42.4C74.6 43.2 73.8 43.8 73.1 44.5C63.3 54.4 61.4 54.2 53.2 42.9C52.5 41.9 51.3 40.7 52.6 39.4C54 37.9 55.2 38.8 56.5 39.9C59.1 42.1 61 46.6 64.1 46.4C66.7 46.2 68.9 42.3 71.4 40.1C72.3 39.3 73.4 38.1 74.9 39C75.4 39.3 75.7 39.9 76.1 40.5Z" fill="#231D16"/>
<path d="M76.1 52.5C75.8 53.2 75.6 53.9 75.2 54.4C74.6 55.2 73.8 55.8 73.1 56.5C63.3 66.4 61.4 66.3 53.2 54.8C52.5 53.8 51.3 52.6 52.6 51.3C54 49.9 55.2 50.8 56.5 51.8C59.1 54 61 58.5 64.1 58.3C66.7 58.1 68.9 54.2 71.4 52C72.3 51.2 73.4 50 74.9 50.9C75.4 51.3 75.7 52 76.1 52.5Z" fill="#231D16"/>
</g>
<defs>
<clipPath id="clip0_1_12">
<rect width="128" height="128.1" fill="white" transform="translate(0 0.5)"/>
</clipPath>
</defs>
</svg>
