<svg width="128" height="129" viewBox="0 0 128 129" fill="none" xmlns="http://www.w3.org/2000/svg">
<g clip-path="url(#clip0_1_40)">
<path d="M64 128.5C56.9 126.5 54.1 120.1 50.2 114.9C38.8 99.8 28.6 84.1 20.5 66.9C7.99997 40.4 24.1 8.20001 54.1 1.70001C54.9 1.50001 55.8 1.70001 56 0.600006C61.3 0.600006 66.7 0.600006 72 0.600006C77.7 3.40001 84 4.30001 89.5 7.90001C110.5 21.8 117.3 46 106.6 68.8C97.2 89 84.2 106.8 70.6 124.3C69.3 125.9 67.5 127.1 65.9 128.4C65.4 128.5 64.7 128.5 64 128.5ZM100 49.3C99.6 36.5 94.2 26.4 84.7 19.3C72.7 10.4 54.7 10.6 42.8 19.7C29.7 29.7 24.9 45.1 30.7 59.8C38.2 78.8 50.2 95.1 62.4 111.4C63.5 112.9 64.2 113.4 65.6 111.5C77.7 95.7 88.8 79.4 96.9 61.1C98.7 57 100 52.6 100 49.3Z" fill="#CC0202"/>
<path d="M93 46.7C92.9 62.3 79.7 75.5 64.1 75.6C48.3 75.6 34.9 62.1 35.1 46.3C35.3 30.6 48.6 17.6 64.3 17.7C79.9 17.8 93 31 93 46.7Z" fill="#CE2B28"/>
</g>
<defs>
<clipPath id="clip0_1_40">
<rect width="128" height="128.1" fill="white" transform="translate(0 0.5)"/>
</clipPath>
</defs>
</svg>
