<svg width="128" height="129" viewBox="0 0 128 129" fill="none" xmlns="http://www.w3.org/2000/svg">
<g clip-path="url(#clip0_1_57)">
<path d="M64 128.5C57.7 126.6 54.8999 121.1 51.2999 116.4C39.0999 100.2 27.5 83.6 19.6 64.7C8.69995 38.7 24.5 9.19998 53.4 1.69998C54.3 1.49998 55.4 1.69998 56 0.599976C61.3 0.599976 66.7 0.599976 72 0.599976C77.6 3.69998 84.1 4.49998 89.6 8.19998C110.2 22 117.1 45.3 106.9 67.8C97.4 88.6 83.9999 106.9 70.0999 124.9C68.6999 126.7 66.6 127.3 64.9 128.5C64.7 128.5 64.4 128.5 64 128.5ZM64.8 12.6C40.6 12.1 20.8 36.6 30.7 60C38.5 78.4 49.7999 94.5 61.5999 110.4C64.5999 114.4 66.1 111.1 67.5 109.2C78.2 94.7 88 79.6 96.2 63.4C107.8 40.6 89.6 12.3 64.8 12.6Z" fill="#F8CB9C"/>
<path d="M64.2 21.6C79.6 21.7 93.1 35.3 93 50.7C92.9 66.1 79.3 79.6 63.9 79.5C48.5 79.4 35 65.8 35.1 50.4C35.2 35 48.8 21.5 64.2 21.6ZM64 48.6C67.5 48.6 71 48.6 74.4 48.6C75.9 48.6 77.7 48.5 77.6 46.5C77.6 44.8 76 44.6 74.6 44.6C67.5 44.6 60.3 44.6 53.2 44.6C51.8 44.6 50.3 44.8 50.2 46.5C50.1 48.5 51.9 48.6 53.4 48.6C57.1 48.6 60.5 48.6 64 48.6ZM64.5 52.6C60.9 52.6 57.2 52.6 53.6 52.6C52.1 52.6 50.3 52.7 50.4 54.8C50.5 56.4 52 56.6 53.4 56.6C60.5 56.6 67.7 56.6 74.8 56.6C76.2 56.6 77.7 56.3 77.7 54.7C77.7 52.7 75.9 52.6 74.4 52.6C71.1 52.5 67.8 52.6 64.5 52.6Z" fill="#F8CB9C"/>
<path d="M64 48.6C60.5 48.6 57 48.6 53.6 48.6C52.1 48.6 50.3 48.5 50.4 46.5C50.5 44.8 52 44.6 53.4 44.6C60.5 44.6 67.7 44.6 74.8 44.6C76.2 44.6 77.7 44.8 77.8 46.5C77.9 48.5 76.1 48.6 74.6 48.6C71 48.6 67.5 48.6 64 48.6Z" fill="#050403"/>
<path d="M64.5 52.6C67.8 52.6 71.1 52.6 74.4 52.6C75.9 52.6 77.7 52.6 77.7 54.7C77.7 56.4 76.2 56.6 74.8 56.6C67.7 56.6 60.5 56.6 53.4 56.6C52 56.6 50.5 56.4 50.4 54.8C50.3 52.8 52 52.6 53.6 52.6C57.2 52.5 60.8 52.6 64.5 52.6Z" fill="#050403"/>
</g>
<defs>
<clipPath id="clip0_1_57">
<rect width="128" height="128.1" fill="white" transform="translate(0 0.5)"/>
</clipPath>
</defs>
</svg>
