<svg width="128" height="129" viewBox="0 0 128 129" fill="none" xmlns="http://www.w3.org/2000/svg">
<g clip-path="url(#clip0_1_22)">
<path d="M64 128.5C57.7 126.6 54.9 121.1 51.3 116.4C39.1 100.2 27.5 83.6 19.6 64.7C8.70001 38.7 24.5 9.19998 53.4 1.69998C54.3 1.49998 55.4 1.69998 56 0.599976C61.3 0.599976 66.7 0.599976 72 0.599976C77.6 3.69998 84.1 4.59998 89.6 8.09998C107.5 19.5 118.4 43.5 107 67.7C97.3 88.4 84.1 106.8 70.2 124.8C68.8 126.6 66.7 127.2 65 128.4C64.7 128.5 64.4 128.5 64 128.5ZM64.9 12.6C53.8 12.8 44.2 16.7 36.8 25.2C26 37.7 26 51.2 33 65.5C40.6 81.1 50.4 95.3 60.6 109.2C63.7 113.4 64.5 113.4 67.7 108.9C78.3 94.5 87.9 79.5 96.1 63.5C107.9 40.5 89.6 12.4 64.9 12.6Z" fill="#B6D7A8"/>
<path d="M64.1 79.5C48.7 79.6 35.1 66.1 35.1 50.6C35 35.2 48.5 21.6 64 21.6C79.4 21.5 93 35 93 50.5C93 65.9 79.5 79.5 64.1 79.5ZM71.6 48.2C66.5 48.2 61.5 48.2 56.3 48.2C56.7 46.4 58.8 45.4 57.5 43.5C56.8 42.6 56 42.6 54.9 43C48.4 45.6 47.2 50.9 52.2 55.7C53.5 57 54.7 59.5 57.1 57.9C59.6 56.2 56 54.5 56.5 52.8C61.6 52.8 66.6 52.8 72.2 52.8C71.1 54.7 68.6 56.9 71.4 57.9C74.4 59 75.7 55.5 77.6 53.9C79.1 52.6 81 51.2 79.2 48.9C77.5 46.8 75.6 45 73.7 43.1C72.9 42.4 71.9 42.2 71 42.9C70.1 43.6 70 44.5 70.5 45.5C70.9 46.6 72.1 47.1 71.6 48.2Z" fill="#B6D7A8"/>
<path d="M71.6 48.2C72.1 47.1 71 46.5 70.6 45.7C70.1 44.6 70.2 43.7 71.1 43.1C72 42.4 73.1 42.6 73.8 43.3C75.7 45.2 77.6 47 79.3 49.1C81.1 51.4 79.1 52.8 77.7 54.1C75.8 55.7 74.4 59.2 71.5 58.1C68.7 57 71.1 54.9 72.3 53C66.8 53 61.8 53 56.6 53C56.1 54.7 59.7 56.4 57.2 58.1C54.8 59.7 53.7 57.1 52.3 55.9C47.4 51.1 48.6 45.8 55 43.2C56.1 42.8 57 42.8 57.6 43.7C58.9 45.5 56.7 46.6 56.4 48.4C61.4 48.2 66.5 48.2 71.6 48.2Z" fill="#0F120E"/>
</g>
<defs>
<clipPath id="clip0_1_22">
<rect width="128" height="128.1" fill="white" transform="translate(0 0.5)"/>
</clipPath>
</defs>
</svg>
