<svg width="128" height="129" viewBox="0 0 128 129" fill="none" xmlns="http://www.w3.org/2000/svg">
<g clip-path="url(#clip0_1_48)">
<path d="M64 128.5C57.7 126.6 54.9 121.1 51.3 116.4C39.1 100.2 27.5 83.6 19.6 64.7C8.70001 38.7 24.5 9.19998 53.4 1.69998C54.3 1.49998 55.4 1.69998 56 0.599976C61.3 0.599976 66.7 0.599976 72 0.599976C77.6 3.69998 84.1 4.59998 89.6 8.09998C107.5 19.5 118.4 43.5 107 67.7C97.3 88.4 84.1 106.8 70.2 124.8C68.8 126.6 66.7 127.2 65 128.4C64.7 128.5 64.4 128.5 64 128.5ZM64.8 12.6C40.5 12.1 20.8 36.7 30.7 60C38.5 78.4 49.8 94.5 61.6 110.4C64.6 114.4 66.1 111.1 67.4 109.2C78.1 94.7 87.9 79.6 96.1 63.4C107.8 40.6 89.6 12.4 64.8 12.6Z" fill="#B6D7A8"/>
<path d="M63.8 79.5C48.4 79.4 34.9 65.7 35.1 50.3C35.2 34.9 48.9 21.4 64.3 21.6C79.7 21.7 93.2 35.4 93 50.8C92.8 66.2 79.2 79.7 63.8 79.5ZM62 43.9C62 50 62 54.9 62 59.9C62 61.6 61.4 64.2 64 64.2C66.6 64.2 66 61.6 66 59.9C66.1 54.9 66 49.8 66 44.8C66.5 44.5 67 44.3 67.5 44C68.8 45.7 70.1 47.4 71.5 49C72.5 50.2 73.9 51.1 75.3 49.6C76.6 48.3 75.5 47 74.6 46.1C71.9 43.2 69 40.4 66.2 37.6C64.7 36.1 63.1 36.4 61.8 37.7C58.8 40.5 55.9 43.5 52.9 46.5C52 47.4 51.7 48.5 52.5 49.6C53.7 51.1 55 50.2 56 49.3C57.9 47.9 59.5 46.3 62 43.9Z" fill="#B6D7A8"/>
<path d="M62 43.9C59.5 46.3 57.9 47.9 56.1 49.4C55.1 50.2 53.8 51.1 52.6 49.7C51.7 48.6 52 47.5 53 46.6C55.9 43.6 58.8 40.7 61.9 37.8C63.2 36.6 64.8 36.2 66.3 37.7C69.1 40.5 72 43.3 74.7 46.2C75.5 47.1 76.7 48.4 75.4 49.7C74 51.2 72.6 50.3 71.6 49.1C70.2 47.5 68.9 45.7 67.6 44.1C67.1 44.4 66.6 44.6 66.1 44.9C66.1 49.9 66.1 55 66.1 60C66.1 61.7 66.7 64.3 64.1 64.3C61.5 64.3 62.1 61.7 62.1 60C61.9 55 62 50 62 43.9Z" fill="#10120E"/>
</g>
<defs>
<clipPath id="clip0_1_48">
<rect width="128" height="128.1" fill="white" transform="translate(0 0.5)"/>
</clipPath>
</defs>
</svg>
