<svg width="128" height="129" viewBox="0 0 128 129" fill="none" xmlns="http://www.w3.org/2000/svg">
<g clip-path="url(#clip0_1_31)">
<path d="M64 128.5C57.7 126.6 54.9 121.1 51.3 116.4C39.1 100.2 27.5 83.6 19.6 64.7C8.70001 38.7 24.5 9.19998 53.4 1.69998C54.3 1.49998 55.4 1.69998 56 0.599976C61.3 0.599976 66.7 0.599976 72 0.599976C77.6 3.69998 84.1 4.59998 89.6 8.09998C107.5 19.5 118.4 43.5 107 67.7C97.3 88.4 84.1 106.8 70.2 124.8C68.8 126.6 66.7 127.2 65 128.4C64.7 128.5 64.4 128.5 64 128.5ZM64.8 12.6C40.5 12.1 20.8 36.7 30.7 60C38.5 78.4 49.8 94.5 61.6 110.4C64.6 114.4 66.1 111.1 67.4 109.2C78.1 94.7 87.9 79.6 96.1 63.4C107.8 40.6 89.6 12.4 64.8 12.6Z" fill="#B6D7A8"/>
<path d="M63.9 79.5C48.5 79.4 35 65.8 35.1 50.4C35.2 35 48.8 21.5 64.2 21.6C79.6 21.7 93.1 35.3 93 50.7C92.9 66.2 79.2 79.6 63.9 79.5ZM62 57.2C59.8 55.1 58.3 53.7 56.8 52.2C55.7 51.1 54.5 49.9 53 51.2C51.3 52.6 52.7 54 53.6 55C56.2 57.8 59 60.4 61.6 63.2C63.3 64.9 64.9 64.6 66.4 63.2C69.3 60.5 72.1 57.6 74.9 54.8C75.9 53.8 76.5 52.5 75.3 51.3C74 50 72.8 51 71.8 51.8C70.1 53.2 68.5 54.9 66.1 57.1C66.1 50.9 66.1 45.7 66.1 40.4C66.1 38.8 66.3 36.6 63.9 36.8C62 36.9 62.1 38.8 62.1 40.3C62 45.7 62 50.9 62 57.2Z" fill="#B6D7A8"/>
<path d="M62 57.2C62 50.9 62 45.7 62 40.4C62 38.9 61.9 37 63.8 36.9C66.2 36.7 66 38.9 66 40.5C66 45.7 66 51 66 57.2C68.4 55 70 53.3 71.7 51.9C72.7 51.1 73.9 50 75.2 51.4C76.4 52.6 75.8 53.9 74.8 54.9C72 57.7 69.2 60.6 66.3 63.3C64.8 64.7 63.2 65.1 61.5 63.3C58.9 60.5 56.1 57.9 53.5 55.1C52.5 54.1 51.2 52.7 52.9 51.3C54.4 50 55.6 51.2 56.7 52.3C58.2 53.6 59.8 55 62 57.2Z" fill="#10120E"/>
</g>
<defs>
<clipPath id="clip0_1_31">
<rect width="128" height="128.1" fill="white" transform="translate(0 0.5)"/>
</clipPath>
</defs>
</svg>
